<svg width="25" height="8" viewBox="0 0 25 8" fill="none" xmlns="http://www.w3.org/2000/svg">
<path d="M24.1383 4.3263C24.4121 4.3263 24.6341 4.10435 24.6341 3.83057C24.6341 3.55678 24.4121 3.33483 24.1383 3.33483V4.3263ZM0.653419 3.48003C0.459822 3.67362 0.459822 3.98751 0.653419 4.18111L3.80827 7.33595C4.00187 7.52955 4.31575 7.52955 4.50935 7.33595C4.70294 7.14236 4.70294 6.82847 4.50935 6.63488L1.70504 3.83057L4.50935 1.02626C4.70294 0.832659 4.70294 0.518776 4.50935 0.325179C4.31575 0.131581 4.00187 0.131581 3.80827 0.325179L0.653419 3.48003ZM24.1383 3.33483L1.00396 3.33483V4.3263L24.1383 4.3263V3.33483Z" fill="url(#paint0_linear_31_33)"/>
<defs>
<linearGradient id="paint0_linear_31_33" x1="1.00396" y1="3.32576" x2="23.0505" y2="8.22776" gradientUnits="userSpaceOnUse">
<stop offset="0.5" stop-color="#2C75FF"/>
<stop offset="0.755" stop-color="#704CFF"/>
</linearGradient>
</defs>
</svg>
