<svg width="821" height="952" viewBox="0 0 821 952" fill="none" xmlns="http://www.w3.org/2000/svg">
<path d="M661.609 1.00847C662.975 0.910268 664.705 0.757068 666.032 1.13157C667.385 1.51317 668.445 2.37197 669.154 3.57387C672.913 9.95377 666.591 23.6183 664.74 30.0796C670.525 23.8173 676.66 17.881 684.415 14.1141C690.02 11.3916 696.699 9.47097 702.786 11.711C704.912 12.4935 706.542 13.4926 707.383 15.7049C709.611 21.5647 700.768 29.603 697.607 33.9434C696.105 36.0071 694.988 38.2412 693.877 40.5325C699.17 38.6732 704.84 37.2315 710.412 36.5508C715.963 35.8727 724.401 35.7092 728.874 39.4975C730.728 41.0681 731.702 43.3257 731.897 45.722C732.509 53.2256 714.26 60.251 709.13 63.527C704.282 66.622 699.334 70.563 695.638 74.989C682.251 91.015 673.292 113.484 663.887 132.108C660.928 137.966 658.673 144.285 654.535 149.453C675.282 196.962 692.656 241.597 691.241 294.605C690.826 310.131 689.731 325.673 686.551 340.907C681.235 366.374 671.329 390.261 659.52 413.33C650.776 430.409 641.408 447.558 630.598 463.424C625.925 470.282 620.688 476.824 615.615 483.39C588.061 519.061 556.265 551.313 523.636 582.31C533.645 592.125 545.06 607.017 553.23 618.556C594.427 676.743 625.414 753.413 626.12 825.362C626.229 836.534 626.126 847.361 624.244 858.418L632.056 862.237C632.922 858.527 633.604 854.783 634.102 851.006C634.6 847.229 634.912 843.436 635.037 839.628C638.193 762.821 606.644 680.563 563.447 618.136C554.94 605.842 546.43 593.993 536.316 582.967C539.456 579.613 542.941 576.557 546.172 573.285C559.679 559.608 573.634 546.26 586.706 532.168C633.149 482.1 680.649 414.14 692.325 345.684C694.406 351.502 695.274 357.872 696.575 363.91C699.001 374.964 701.367 386.031 703.673 397.111L727.063 510.998C757.44 657.979 788.56 804.804 820.423 951.473C798.159 941.844 775.567 932.983 753.184 923.638L502.167 820.779L396.602 777.584C380.765 771.003 364.775 764.933 348.835 758.626C339.755 755.034 330.72 750.76 321.352 748.007C337.207 727.623 354.193 708.273 375.056 692.76C391.16 714.456 397.467 741.908 402.178 768.03L411.553 772.444C407.847 747.088 401.432 717.913 387.968 695.79C384.488 690.073 380.223 685.028 375.941 679.911C372.238 683.796 367.832 687.066 363.743 690.536C357.764 695.616 351.913 700.84 346.191 706.209C317.223 733.49 290.553 770.038 278.994 808.501C276.684 816.187 274.613 823.959 274.376 832.019C277.642 836.078 281.352 839.78 284.589 843.864C288.976 849.399 292.858 855.698 298.131 860.454C302.371 864.279 310.108 866.872 312.198 872.586C312.74 874.067 312.698 875.331 311.999 876.756C310.305 880.212 305.767 882.887 302.174 883.858C292.455 886.484 278.971 880.429 270.888 875.546C271.097 883.461 270.544 891.295 270.459 899.2C270.373 907.258 272.557 916.389 269.884 924.173C269.144 926.328 267.993 928.293 265.843 929.253C264.001 930.076 261.686 929.555 259.913 928.821C248.612 924.149 242.665 906.274 238.434 895.927C237.09 900.554 235.645 905.099 233.929 909.605C231.517 915.942 227.467 925.829 220.676 928.544C219.13 929.162 217.688 929.116 216.185 928.351C213.23 926.848 211.086 921.627 210.067 918.675C206.646 906.895 208.499 895.043 210.249 883.175C210.107 883.251 209.966 883.329 209.823 883.404C200.418 888.319 187.726 899.6 177.143 900.475C175.297 900.628 173.298 900.397 171.973 898.946C170.693 897.545 170.247 895.121 170.273 893.288C170.46 880.223 185.576 866.289 194.05 857.822L193.611 857.37C192.664 857.459 191.919 857.395 190.983 857.228C189.739 852.293 193.834 823.932 195.055 817.323C207.307 751.009 255.054 686.921 307.125 645.777C314.117 640.253 321.615 635.533 328.952 630.498C326.588 630.555 324.224 630.562 321.86 630.519C292.645 629.904 271.248 610.408 252.203 590.554C239.592 603.414 225.161 611.686 206.861 612.4C188.721 613.108 170.067 604.755 156.948 592.531C141.292 577.943 130.643 555.431 129.972 534.001C129.473 518.051 134.224 502.186 145.302 490.44C158.042 476.933 172.597 473.505 190.459 473.015C190.071 471.191 189.793 469.351 189.626 467.494C185.455 422.432 199.747 392.035 227.684 357.923C232.412 352.15 241.655 345.659 244.917 339.573C248.237 333.378 249.892 324.74 252.652 318.007C259.595 301.073 272.683 277.525 284.365 263.27C280.496 274.502 280.982 286.602 281.963 298.329C292.06 280.323 306.629 260.423 325.093 250.34C312.208 266.444 308.88 280.234 309.568 300.832C316.075 298.155 322.728 295.909 329.526 294.094C360.173 286.108 394.956 286.729 424.472 298.705C432.755 302.065 440.364 306.513 448.056 311.009C451.589 308.508 454.805 305.741 458.521 303.462C471.824 295.302 486.276 290.357 501.859 294.262C520.106 298.835 534.489 314.024 543.804 329.699C554.006 346.866 558.73 367.563 553.592 387.249C549.618 402.476 539.081 415.367 525.616 423.212C536.339 436.15 540.876 446.463 542.743 463.294C564.3 439.856 593.58 399.22 605.396 369.961C612.328 352.796 619.15 334.998 623.342 316.944C637.037 257.969 610.764 213.934 588.629 161.915C586.467 156.835 582.21 148.558 584.671 143.089C585.834 140.503 588.258 138.866 590.841 137.902C607.737 131.596 634.189 138.543 650.102 145.378C657.695 135.178 662.252 122.62 667.817 111.262C670.438 105.913 673.695 100.921 676.254 95.542C675.388 93.914 674.373 92.441 673.301 90.943C668.768 84.603 661.032 76.433 653.574 73.662C650.254 72.428 646.013 72.092 642.498 71.503C641.932 70.581 642.047 70.477 642.334 69.466C643.685 64.712 646.834 59.512 648.884 54.9807C655.591 40.1603 664.237 21.2852 665.135 5.00867C657.928 8.80127 652.02 14.5533 647.032 20.9159C627.079 46.368 629.417 68.346 617.646 94.489C618.183 94.6956 618.718 94.91 619.249 95.132C624.518 97.336 628.213 101.239 630.297 106.579C633.783 115.511 632.033 124.932 628.267 133.408C626.905 125.697 628.412 117.632 625.649 110.129C623.561 104.461 618.88 100.552 613.493 98.169C608.151 95.805 603.909 90.371 598.954 87.062C596.312 85.298 592.861 82.881 589.567 83.55C588.302 84.587 587.63 85.505 587.443 87.183C586.616 94.635 596.95 109.268 601.85 114.725C605.122 118.369 609.257 121.479 612.167 125.391C612.045 126.778 612.018 127.18 610.425 127.358C607.405 127.697 604.302 127.48 601.266 127.662C594.33 128.079 585.16 130.562 580.174 135.581C575.789 139.995 575.326 146.073 576.494 151.89C578.613 162.442 584.296 172.203 588.728 181.918C602.654 212.439 617.986 244.29 618.836 278.471C620.078 328.431 593.503 384.21 564.577 423.874C559.268 431.154 553.918 438.682 547.71 445.232C546.143 437.707 543.19 430.62 540.967 423.285C552.109 414.099 560.058 399.285 563.107 385.305C567.913 363.263 561.661 340.005 549.658 321.316C538.869 304.517 521.977 288.598 501.852 284.371C481.805 280.162 462.454 289.672 446.142 300.328C433.929 289.084 405.824 282.681 389.526 281.974C395.801 275.349 403.044 269.622 409.708 263.393L464.671 212.815L586.162 99.013C583.743 95.081 581.972 90.052 581.951 85.386C581.943 83.506 582.382 81.664 583.774 80.313C585.476 78.66 588.064 78.193 590.353 78.227C598.559 78.348 606.825 85.617 612.175 91.231C618.971 77.392 621.042 62.722 626.103 48.348C632.164 31.1312 644.365 9.20727 661.609 1.00847ZM344.144 379.818C325.935 370.727 307.788 367.175 287.999 373.695C287.043 374.016 286.095 374.361 285.155 374.729C284.216 375.096 283.286 375.486 282.365 375.899C281.445 376.312 280.535 376.746 279.636 377.203C278.736 377.66 277.848 378.139 276.972 378.639C276.096 379.139 275.233 379.66 274.382 380.202C273.531 380.744 272.694 381.307 271.871 381.89C271.047 382.473 270.238 383.075 269.444 383.697C268.65 384.319 267.871 384.96 267.108 385.62C266.345 386.28 265.599 386.958 264.869 387.654C264.138 388.35 263.425 389.064 262.73 389.795C262.035 390.526 261.358 391.273 260.699 392.036C260.04 392.8 259.399 393.579 258.778 394.374C258.157 395.169 257.555 395.979 256.974 396.803C256.392 397.627 255.83 398.465 255.289 399.316C254.748 400.167 254.228 401.031 253.729 401.908C253.23 402.785 252.752 403.673 252.296 404.573C239.754 429.729 241.599 459.549 250.473 485.556C253.742 495.135 257.887 504.732 262.856 513.552C265.285 517.863 268.123 521.938 270.564 526.234C272.501 529.644 273.353 532.62 275.765 535.985C269.61 551.778 268.304 570.632 275.177 586.443C280.788 599.351 291.864 608.737 304.822 613.758C335.599 625.685 385.854 613.547 415.2 600.427C416.626 599.789 418.071 599.166 419.473 598.479C431.7 592.546 444.022 586.365 455.348 578.811C485.636 558.605 514.903 526.073 526.882 491.333C532.083 476.252 533.173 460.313 525.969 445.642C519.031 431.511 504.699 422.721 490.235 417.869C474.557 412.609 464.365 413.446 449.564 420.295L453.56 416.039C451.92 411.497 449.893 406.638 449.445 401.808C451.467 402.738 452.952 407.119 453.714 409.178C454.409 411.06 455.092 412.946 455.763 414.836L462.263 412.315C460.947 406.982 460.102 401.792 459.982 396.293L460.395 395.789C463.489 398.305 464.258 406.667 464.617 410.517C464.636 410.719 464.646 410.922 464.66 411.125C469.751 410.384 474.761 410.393 479.892 410.545C476.734 400.484 473.479 390.756 468.637 381.34C458.292 361.224 439.802 340.386 419.571 329.886C410.576 325.218 400.083 321.659 389.782 323.201C375.841 324.648 364.122 329.333 355.136 340.511C346.357 351.432 343.425 366.101 344.144 379.818ZM485.249 407.649C484.664 400.572 484.147 393.553 482.551 386.613C477.425 364.331 463.893 341.729 446.58 326.958C422.627 306.521 391.654 299.746 360.906 302.3C340.12 304.027 313.727 310.632 296.716 323.183C295.725 316.788 295.073 310.465 294.948 303.99C294.913 302.129 295.422 296.686 294.375 295.415C288.368 306.112 284.11 317.228 279.575 328.571C276.849 320.02 275.034 311.652 274.038 302.726C266.803 318.303 258.415 334.143 254.012 350.812C226.691 377.12 203.469 410.62 202.668 449.915C201.66 499.416 232.721 550.263 265.836 585.11C261.047 567.48 262.038 554.51 266.93 536.945C262.348 529.591 257.021 522.606 252.819 515.039C237.187 486.891 230.45 453.987 237.779 422.353C240.53 410.479 246.281 398.534 253.831 388.966C268.065 372.594 285.725 364.39 307.217 362.963C317.239 362.297 326.662 364.073 335.922 367.845C339.835 350.905 347.895 334.689 363.104 325.231C376.284 317.034 391.281 315.338 406.228 318.876C432.596 325.118 455.308 347.154 469.055 369.709C476.442 381.829 481.013 394.179 485.249 407.649ZM244.97 580.245C236.843 571.976 230.106 563.456 223.801 553.75C214.43 539.781 206.974 524.83 200.628 509.263C189.359 511.134 180.108 513.55 173.096 523.327C167.827 530.674 165.763 540.662 167.295 549.55C168.844 558.528 173.874 565.169 179.855 571.713C171.909 568.658 166.479 562.654 163.053 554.948C158.788 545.356 157.882 533.756 161.782 523.894C165.738 513.888 173.394 506.658 183.245 502.535C187.91 500.583 192.355 499.824 197.362 499.387C195.897 494.616 194.378 489.859 193.189 485.01L186.637 485.252C173.728 486.576 160.969 491.156 152.641 501.542C144.191 512.081 140.979 526.171 142.593 539.434C144.903 558.426 156.757 576.37 171.671 587.987C183.322 597.063 197.201 601.125 211.882 599.288C226.098 597.51 235.156 590.061 244.97 580.245ZM456.961 318.954C459.929 321.878 463.425 324.502 466.028 327.734C477.278 323.04 487.737 320.492 499.413 325.246C510.011 329.562 518.228 338.17 522.593 348.694C524.307 352.827 525.47 357.089 526.239 361.491C526.135 361.376 526.028 361.262 525.926 361.145C523.03 357.81 521.232 353.51 518.826 349.811C512.92 340.732 501.864 333.482 490.988 332.573C484.817 332.058 478.591 333.64 473.231 336.674C476.217 342.763 480.238 348.255 483.25 354.346C491.367 371.467 495.444 388.015 496.18 406.982C501.546 409.133 506.949 411.03 512.438 412.839C523.757 410.189 530.205 408.138 536.633 397.853C544.485 385.289 545.547 369.27 542.121 355.111C537.915 337.736 525.937 319.826 510.472 310.526C505.35 307.447 499.34 305.246 493.371 304.695C479.645 305.621 467.705 310.247 456.961 318.954ZM409.071 615.186C419.1 625.907 427.154 638.813 434.46 651.485C437.105 656.126 439.666 660.813 442.143 665.546C444.62 670.279 447.013 675.054 449.32 679.872C451.627 684.69 453.847 689.548 455.981 694.445C458.114 699.342 460.16 704.275 462.118 709.246C464.075 714.216 465.944 719.219 467.723 724.256C469.502 729.293 471.19 734.36 472.788 739.457C474.387 744.554 475.894 749.679 477.309 754.83C478.724 759.981 480.047 765.155 481.278 770.353C483.931 781.201 485.298 792.247 487.575 803.155C510.772 813.598 534.751 822.769 558.377 832.218C576.997 839.578 595.523 847.292 614.262 854.335C614.3 848.558 614.828 842.802 614.879 837.028C614.884 823.833 614.12 810.683 612.587 797.578C610.95 783.947 607.863 770.422 604.547 757.114C604.04 755.032 603.516 752.955 602.975 750.882C602.433 748.809 601.874 746.741 601.297 744.678C600.72 742.615 600.126 740.556 599.514 738.503C598.902 736.45 598.273 734.402 597.627 732.359C596.98 730.316 596.316 728.279 595.635 726.248C594.954 724.217 594.256 722.191 593.541 720.172C592.826 718.152 592.093 716.139 591.344 714.132C590.594 712.125 589.827 710.124 589.044 708.13C588.261 706.136 587.46 704.149 586.643 702.168C585.826 700.187 584.992 698.214 584.141 696.248C583.29 694.281 582.423 692.322 581.539 690.371C580.656 688.419 579.755 686.475 578.838 684.539C577.921 682.602 576.988 680.674 576.039 678.753C575.089 676.832 574.123 674.92 573.141 673.016C572.159 671.112 571.161 669.216 570.147 667.329C569.133 665.442 568.103 663.563 567.057 661.693C566.011 659.824 564.949 657.963 563.871 656.111C562.794 654.259 561.7 652.417 560.591 650.584C559.482 648.751 558.358 646.927 557.219 645.113C556.079 643.298 554.924 641.494 553.753 639.7C552.583 637.905 551.398 636.121 550.197 634.346C548.996 632.571 547.781 630.807 546.55 629.054C545.319 627.3 544.074 625.557 542.814 623.824C541.553 622.091 540.278 620.369 538.989 618.658C537.7 616.947 536.396 615.247 535.078 613.558C533.76 611.869 532.428 610.192 531.081 608.525C529.734 606.859 528.373 605.204 526.998 603.561C525.623 601.918 524.235 600.286 522.833 598.667C521.43 597.047 520.014 595.439 518.585 593.843C517.155 592.248 515.712 590.664 514.255 589.093C512.798 587.522 511.329 585.963 509.846 584.417C508.363 582.87 506.867 581.337 505.358 579.816C500.581 574.97 495.233 569.883 489.728 565.865C476.567 577.065 463.296 587.677 448.244 596.256C435.627 603.448 422.259 609.161 409.071 615.186ZM665.823 75.112C666.385 72.889 667.025 70.882 668.141 68.861C671.391 62.976 702.238 19.5333 702.365 18.2542C702.399 17.9096 702.196 17.5825 702.111 17.2466C700.097 15.7016 697.607 15.9468 695.2 16.0697C683.057 19.1293 665.978 32.678 659.778 43.43C655.593 50.6884 653.018 59.517 649.558 67.237C653.542 68.284 657.247 69.4 660.85 71.447L665.823 75.112ZM482.047 800.77C471.748 743.682 452.81 685.527 419.832 637.319C416.804 632.893 408.347 620.385 404.708 617.493C404.278 617.151 404.036 617.122 403.563 616.99C394.918 620.203 386.279 623.193 377.263 625.211C369.384 626.974 358.684 627.23 351.613 630.514C341.913 635.02 332.479 642.139 323.876 648.459C282.247 679.044 244.762 720.285 223.109 767.567C210.469 795.168 206.095 813.687 202.404 843.538C222.189 837.238 242.394 832.327 263.126 830.664C266.802 792.202 288.965 755.191 312.62 725.692C331.873 703.862 351.627 684.281 375.975 668.074C380.167 665.283 385.483 661.018 390.574 660.478C391.871 661.066 391.903 661.167 392.621 662.409C392.501 664.221 391.926 664.98 390.592 666.203C388.526 668.099 386.216 669.802 384.005 671.526C409.851 702.516 417.636 739.069 424.245 777.79C430.628 779.571 436.969 782.541 443.14 784.991L482.047 800.77ZM208.786 852.272C208.708 852.393 208.633 852.516 208.55 852.635C206.586 855.453 202.905 857.55 200.144 859.58C190.622 866.586 182.885 874.068 177.99 885.026C176.861 887.553 175.072 891.316 175.478 894.108C175.606 894.988 175.884 894.976 176.523 895.485C178.766 895.706 180.792 894.79 182.781 893.841C188.319 891.197 193.221 887.496 198.433 884.304C203.714 881.07 209.3 878.253 214.782 875.378C216.875 871.571 219.419 866.966 222.832 864.224C224.039 863.988 224.08 863.916 225.156 864.479C225.602 868.695 218.957 874.719 217.276 878.717C213.756 887.089 209.702 915.944 217.624 922.69C218.672 923.582 218.879 923.542 220.153 923.398C226.317 919.392 231.793 901.379 234.48 894.479C235.438 892.542 236.553 890.504 237.042 888.391C239.084 879.557 238.444 871.394 243.789 863.496C244.575 862.335 245.409 860.803 246.768 860.318C247.83 862.592 243.312 874.394 242.83 878.102C242.202 882.932 242.471 887.965 243.446 892.731C245.118 900.91 253.24 920.953 261.634 924.282C262.573 924.654 262.79 924.534 263.741 924.424C265.329 923.09 265.501 920.267 265.669 918.329C266.167 912.6 265.507 906.634 265.557 900.858C265.615 894.333 266.339 887.781 266.307 881.272C266.277 875.235 263.366 862.382 265.196 857.391L265.841 856.992C267.177 857.569 267.728 858.539 268.22 859.899C269.198 862.598 269.418 865.503 270.269 868.232C277.138 874.774 286.898 879.388 296.545 879.191C299.382 879.134 304.379 878.576 306.315 876.162C307.108 875.173 306.915 874.498 306.784 873.353C303.565 869.195 297.906 867.568 294.108 864.011C289.503 859.699 278.003 840.841 273.278 840.036C272.511 839.905 271.533 840.104 270.761 840.194L269.83 840.298C251.035 842.308 226.628 846.799 208.786 852.272ZM526.644 564.412C558.998 533.192 592.998 496.941 618.916 460.193C650.796 414.99 678.542 356.228 679.521 300.165C679.68 291.051 679.839 281.779 679.196 272.682C677.15 243.768 669.151 214.661 658.929 187.618C654.774 176.628 649.747 165.961 645.471 155.015C631.426 148.195 614.594 145.484 599.052 147.267C597.615 147.313 596.598 147.128 595.368 147.905C596.997 155.386 601.716 163.332 604.785 170.36C611.6 185.969 618.387 201.757 624.738 217.558C627.221 223.736 629.796 230.017 631.628 236.423C639.194 262.88 640.095 292.703 634.366 319.606C632.779 327.058 630.421 334.511 628.198 341.799C622.797 359.506 615.631 377.17 606.843 393.47C601.283 403.783 594.876 413.61 588.553 423.465C579.555 437.489 568.997 451.637 558.095 464.247C553.161 469.955 546.17 475.341 542.188 481.676C538.881 486.936 537.351 496.781 534.704 502.985C526.017 523.345 512.485 541.823 497.803 558.27C503.866 563.572 509.738 568.904 515.119 574.916C518.911 571.353 522.816 567.932 526.644 564.412ZM680.508 88.222C686.243 77.846 692.718 68.532 702.354 61.342C707.227 57.7046 722.934 51.408 725.022 48.0373C725.759 46.8466 725.772 46.4886 725.686 45.1567C724.286 43.1404 722.051 42.6869 719.745 42.3003C716.933 41.8288 713.153 41.6296 710.304 42.1678C699.208 43.9744 690.131 44.5744 683.154 54.3658C678.743 60.556 673.892 71.036 667.935 75.265C667.697 75.434 667.472 75.622 667.241 75.801L667.833 76.313C671.934 79.89 675.619 86.942 679.362 89.445C680.258 88.62 679.889 89.039 680.508 88.222Z" fill="#FF2C4C"/>
<path d="M449.766 472.698C461.533 470.483 480.181 473.908 490.644 479.666C501.45 485.612 507.316 494.011 510.766 505.677C503.348 516.812 490.115 520.675 478.014 524.349C448.439 533.327 422.4 550.606 399.798 571.45C392.632 578.058 386.017 585.257 378.943 591.969C373.641 597.399 360.377 611.474 353.225 612.406C350.508 612.759 347.999 611.399 345.969 609.723C341.434 605.977 338.408 600.232 337.815 594.39C335.3 569.601 345.703 544.921 361.215 525.989C376.382 507.478 400.341 487.623 422.718 478.875C431.603 475.401 440.334 473.665 449.766 472.698ZM382.686 581.361C411.091 552.732 444.627 527.319 484.4 517.51C472.591 510.949 461.337 507.666 447.766 508.7C435.326 509.858 422.199 513.915 413.933 523.823C410.479 527.962 408.507 532.587 406.802 537.646C396.381 537.22 385.63 540.773 377.953 547.942C367.005 558.167 363.876 571.955 363.482 586.463C363.36 590.96 363.372 595.631 364.087 600.081C370.365 593.919 376.565 587.679 382.686 581.361ZM356.852 543.098C369.836 531.432 383.145 521.147 398.062 512.052C405.618 507.445 413.878 504.004 421.607 499.687C433.175 493.226 444.483 485.174 455.068 477.249C454.015 477.001 453.339 477.031 452.274 477.21C443.741 477.868 435.333 479.411 427.264 482.317C404.361 490.565 382.049 508.801 366.294 527.205C362.454 531.691 356.768 538.2 355.121 543.897L355.646 544.158L356.852 543.098Z" fill="#FF2C4C"/>
<path d="M396.569 426.527C381.275 415.434 372.471 397.929 369.576 379.5C368.228 370.921 368.4 359.62 373.901 352.431C376.985 348.399 381.557 345.966 386.565 345.329C394.806 344.28 402.726 348.145 408.987 353.195C421.985 363.679 430.883 380.855 432.534 397.403C433.299 405.078 432.74 414.291 427.532 420.415C423.222 425.484 416.337 427.56 409.891 427.948C407.617 428.085 405.367 427.868 403.099 427.739C408.683 430.328 412.281 432.812 415.7 438.011C413.456 437.041 411.199 436.101 408.93 435.192C397.122 431.384 390.547 431.008 379.393 436.685C370.479 441.222 358.467 449.041 354.302 458.598C351.934 464.665 350.017 471.544 348.824 477.957C348.413 480.166 348.847 482.569 348.333 484.737C348.182 485.373 348.13 485.697 347.537 486.04C347.331 486.159 347.127 486.297 346.898 486.364C346.535 486.47 345.818 486.469 345.426 486.48C344.381 485.59 344.136 484.998 343.977 483.615C343.275 477.514 345.491 467.92 347.664 462.207C344.302 462.993 336.794 485.486 322.636 490.324C316.044 492.576 308.862 491.352 302.71 488.378C288.667 481.589 276.771 465.152 271.775 450.699C267.799 439.197 266.795 424.86 272.478 413.683C275.199 408.333 279.647 404.714 285.375 402.97C293.51 400.492 301.88 402.725 309.088 406.739C329.317 418.004 340.479 438.677 346.587 460.135C354.101 445.655 362.679 435.316 378.474 429.344C384.735 426.954 389.885 426.35 396.569 426.527ZM323.286 484.21C330.274 479.1 335.57 472.108 339.642 464.489C337.583 445.684 328.526 427.748 313.633 415.896C305.814 409.674 298.279 406.564 288.209 407.172C283.714 408.14 280.463 410.177 277.871 414.053C272.587 421.957 272.609 434.508 274.601 443.48C277.855 458.137 288.436 474.051 301.205 482.103C306.261 485.291 312.462 487.301 318.451 486.031C320.105 485.68 321.796 485.005 323.286 484.21ZM414.234 423.06C419.643 421.273 423.73 418.961 426.353 413.59C430.63 404.834 428.179 392.491 424.94 383.758C420.201 370.981 410.454 357.27 397.735 351.454C394.219 349.846 391.39 349.378 387.537 349.604C383.046 350.474 379.932 352.014 377.303 355.917C372.26 363.402 372.954 374.993 374.846 383.411C377.865 396.842 385.242 412.893 397.342 420.455C403.124 424.068 407.786 424.237 414.234 423.06Z" fill="#FF2C4C"/>
<path d="M292.015 429.516C295.074 429.784 297.811 430.586 300.498 432.088C309.95 437.373 317.171 447.769 319.711 458.208C320.296 460.612 320.401 463.508 318.881 465.612C317.857 467.027 315.968 467.136 314.377 467.406C313.158 467.205 311.932 466.988 310.768 466.566C301.809 463.315 292.892 453.199 289.016 444.714C287.454 441.295 286.094 437.237 287.637 433.576C288.58 431.339 289.841 430.462 292.015 429.516Z" fill="#FF2C4C"/>
<path d="M387.253 371.948C391.374 371.635 394.071 372.424 397.563 374.715C404.665 379.373 411.94 389.35 413.566 397.734C414.187 400.943 414.125 403.267 412.226 405.951C410.194 406.562 408.826 406.691 406.753 406.146C399.39 404.21 394.164 398.264 390.617 391.824C387.087 385.413 385.159 379.192 387.253 371.948Z" fill="#FF2C4C"/>
<path d="M498.489 599.708C508.831 599.015 518.227 603.011 526.187 609.412C533.163 615.022 538.354 622.65 539.158 631.745C540.654 648.664 529.028 651.495 520.23 662.003C520.113 662.142 520.001 662.285 519.887 662.426C522.537 664.934 525.832 667.39 527.92 670.378C529.294 672.344 530.155 674.422 529.576 676.825C528.948 679.43 526.925 681.537 524.653 682.842C521.755 684.506 518.158 685.045 514.949 684.019C508.599 681.988 505.741 675.493 503.088 669.946C492.193 647.165 512.249 652.607 518.109 635.745L518.308 635.159C518.668 633.369 519.038 631.587 518.678 629.764C518.087 626.774 515.169 623.66 512.726 621.991C508.095 618.825 502.274 618.465 496.91 619.579C486.997 621.639 472.941 631.891 470.762 642.222C469.856 646.517 472.364 657.648 470.638 660.069C467.863 663.962 460.645 665.154 456.191 665.928C454.818 665.324 453.341 664.736 452.15 663.81C449.597 661.824 448.742 658.724 448.466 655.641C447.407 643.794 450.453 633.967 458.183 624.953C467.976 613.533 482.951 600.822 498.489 599.708ZM522.735 627.997C523.777 632.889 524.049 637.349 521.171 641.771C517.295 647.724 503.376 653.054 504.643 660.73C505.528 666.095 510.897 676.063 515.446 679.011C516.772 679.87 518.333 680.264 519.886 679.776C521.939 679.13 523.705 676.96 524.644 675.119C523.451 670.237 512.14 664.996 515.78 658.959C517.131 656.718 519.765 655.13 521.834 653.569C530.44 647.076 535.897 639.924 533.456 628.461C531.58 619.645 524.863 613.542 517.53 608.934C512.172 605.567 505.773 603.421 499.374 604.219C485.112 605.081 472.837 615.487 463.741 625.83C455.646 635.035 452.569 643.539 453.428 655.782C453.553 657.558 453.747 658.849 454.983 660.222C457.55 661.07 462.055 659.99 464.442 658.853C465.022 658.578 465.762 658.324 466.013 657.692C467.013 655.17 465.239 650.264 465.137 647.44C464.694 635.163 476.61 623.825 486.592 618.4C493.223 614.797 500.543 613.006 507.995 615.166C513.374 616.725 518.823 620.344 521.525 625.353C521.989 626.213 522.367 627.093 522.735 627.997Z" fill="#FF2C4C"/>
<path d="M530.335 687.017C533.011 686.878 535.885 687.23 538.306 688.438C541.172 689.868 543.264 692.364 544.263 695.397C545.427 698.929 545.073 703.031 543.246 706.277C540.917 710.416 537.506 711.855 533.126 712.969C530.464 713.081 528.083 712.553 525.631 711.492C522.749 710.246 520.525 708.029 519.41 705.073C519.262 704.668 519.135 704.257 519.028 703.839C518.922 703.421 518.837 702.998 518.774 702.572C518.711 702.146 518.669 701.717 518.649 701.287C518.63 700.856 518.632 700.425 518.656 699.995C518.68 699.564 518.726 699.136 518.793 698.71C518.86 698.284 518.949 697.863 519.06 697.446C519.17 697.029 519.301 696.619 519.454 696.216C519.606 695.812 519.778 695.418 519.97 695.032C522.26 690.404 525.737 688.667 530.335 687.017ZM533.952 708.162C536.436 707.103 538.424 705.52 539.538 702.986C539.647 702.74 539.744 702.49 539.828 702.235C539.911 701.979 539.981 701.72 540.038 701.458C540.095 701.195 540.137 700.93 540.166 700.663C540.195 700.395 540.21 700.127 540.211 699.859C540.212 699.59 540.2 699.322 540.173 699.055C540.146 698.787 540.106 698.522 540.051 698.259C539.997 697.996 539.929 697.737 539.847 697.481C539.766 697.224 539.671 696.973 539.564 696.727C538.703 694.73 536.915 693.064 534.855 692.353C533.393 691.849 531.659 691.983 530.136 692.071C527.384 693.278 525.097 694.342 523.882 697.264C523.779 697.508 523.689 697.756 523.612 698.01C523.536 698.264 523.474 698.521 523.425 698.782C523.377 699.042 523.343 699.305 523.323 699.569C523.304 699.833 523.299 700.098 523.308 700.363C523.317 700.627 523.34 700.891 523.378 701.154C523.416 701.416 523.468 701.675 523.534 701.932C523.6 702.188 523.68 702.441 523.774 702.689C523.867 702.937 523.974 703.179 524.094 703.415C525.19 705.591 527.473 707.289 529.83 707.858C531.131 708.171 532.616 708.173 533.952 708.162Z" fill="#FF2C4C"/>
<path d="M131.88 494.012C131.433 496.714 128.114 500.004 126.798 502.648C123.286 509.707 121.468 518.178 120.91 525.998C119.222 549.618 128.833 574.733 144.323 592.381C158.431 608.455 179.963 620.157 201.521 621.38C219.619 622.407 238.398 615.525 251.917 603.55C255.868 607.035 259.493 610.868 263.484 614.307C274.599 623.882 288.695 632.401 302.899 636.344C298.465 642.547 291.414 647.667 285.68 652.696C279.017 658.54 272.515 664.462 266.371 670.859C259.783 677.718 253.673 684.95 247.675 692.325C243.704 697.209 239.874 702.348 235.498 706.873L210.625 696.309C189.254 687.723 167.96 678.95 146.743 669.99L70.7051 638.728C47.4761 629.098 23.7671 620.398 0.706055 610.41C7.55305 604.518 14.1261 598.31 20.9821 592.419C58.4231 560.246 96.2481 528.201 131.88 494.012Z" fill="#FF2C4C"/>
<path d="M161.208 117.696C174.823 116.294 190.274 119.192 202.305 125.77C216.182 133.358 226.908 145.682 231.249 161.029C234.189 171.42 235.26 185.876 230.738 195.983C227.9 202.328 222.592 208.634 217.875 213.67C214.901 216.845 211.119 219.659 209.975 224.05C207.105 235.065 217.156 244.595 209.796 257.117C206.623 262.515 200.477 265.654 194.581 267.175C187.482 269.006 179.71 268.632 173.386 264.651C166.66 260.417 162.969 252.807 161.132 245.356C157.729 231.554 160.182 218.816 167.466 206.737C173.67 196.794 186.172 187.657 184.968 174.926C184.491 169.877 181.782 164.735 177.727 161.639C177.332 161.338 176.923 161.057 176.5 160.798C176.077 160.539 175.641 160.301 175.194 160.086C174.747 159.871 174.289 159.68 173.822 159.512C173.355 159.343 172.881 159.199 172.399 159.079C171.918 158.96 171.431 158.865 170.939 158.794C170.448 158.724 169.954 158.679 169.458 158.66C168.962 158.64 168.466 158.646 167.971 158.677C167.476 158.708 166.983 158.764 166.493 158.845C162.468 159.475 157.659 161.201 154.153 163.259C136.703 173.5 149.451 189.299 140.957 200.299C136.125 206.557 126.138 211.053 118.414 212.125C112.362 212.965 105.345 212.576 100.404 208.603C96.363 205.354 95.212 199.998 94.691 195.085C92.717 176.484 97.719 157.838 109.53 143.249C122.659 127.032 140.946 119.851 161.208 117.696ZM102.347 204.341C107.511 207.066 113.456 208.05 119.164 206.354C123.258 205.138 126.86 202.527 128.748 198.629C131.376 193.199 129.365 187.672 129.411 181.996C129.514 169.131 140.421 159.062 151.665 154.805C159.058 152.006 168.137 151.555 175.442 154.862C181.625 157.662 186.709 163.05 188.949 169.472C191.001 175.355 190.788 182.117 187.861 187.674C185.615 191.938 182.16 195.655 179.092 199.35C169.678 211.193 163.058 223.12 164.769 238.685C165.627 246.496 168.324 254.586 174.583 259.759C178.322 262.85 182.946 264.077 187.748 263.586C190.817 263.273 193.559 262.097 195.449 259.585C198.946 254.936 199.036 247.657 198.053 242.132C196.573 233.81 194.352 226.674 199.516 218.962C202.519 214.477 206.87 210.949 210.559 207.055C220.139 196.944 223.72 183.676 221.273 170.016C218.513 154.607 208.766 140.466 195.921 131.673C185.807 124.749 170.069 120.347 157.838 122.664C140.09 125.467 122.492 133.339 111.707 148.298C101.958 161.823 97.013 179.033 99.83 195.653C100.348 198.705 101.163 201.475 102.347 204.341Z" fill="#FF2C4C"/>
<path d="M202.468 281.642C207.568 280.892 212.697 281.558 217.308 283.946C222.5 286.634 226.602 291.237 228.179 296.921C229.472 301.578 229.02 306.475 226.509 310.643C222.154 317.869 214.275 321.091 206.491 323.028C200.002 323.502 193.661 322.797 188.083 319.119C183.934 316.384 180.718 312.154 179.73 307.233C178.672 301.961 180.42 296.287 183.43 291.943C188.111 285.186 194.846 283.102 202.468 281.642ZM203.021 318.6C207.267 317.799 210.419 316.601 213.037 312.88C215.495 309.385 216.177 304.903 215.304 300.764C215.243 300.482 215.175 300.201 215.1 299.922C215.025 299.643 214.942 299.367 214.853 299.092C214.764 298.818 214.667 298.546 214.564 298.276C214.461 298.007 214.351 297.74 214.234 297.476C214.117 297.212 213.994 296.951 213.863 296.693C213.733 296.436 213.596 296.182 213.453 295.931C213.31 295.68 213.16 295.433 213.004 295.19C212.848 294.947 212.686 294.709 212.517 294.474C212.349 294.239 212.175 294.009 211.995 293.783C211.815 293.557 211.629 293.336 211.438 293.12C211.247 292.904 211.05 292.693 210.848 292.486C210.646 292.28 210.439 292.079 210.226 291.884C210.014 291.688 209.797 291.498 209.574 291.314C209.352 291.129 209.125 290.951 208.894 290.778C208.663 290.605 208.427 290.439 208.187 290.278C207.948 290.117 207.704 289.962 207.456 289.814C204.375 287.972 201.319 287.524 197.785 287.564C192.649 289.262 188.566 292.348 186.156 297.306C184.49 300.734 183.876 304.675 185.192 308.327C186.509 311.983 189.683 314.852 193.151 316.454C196.233 317.878 199.641 318.535 203.021 318.6Z" fill="#FF2C4C"/>
<path d="M384.262 131.705C389.214 135.48 391.735 147.246 399.341 152.382C407.366 157.801 419.701 154.416 428.516 152.83C422.291 156.658 413.988 160.697 409.301 166.363C402.15 175.008 406.646 187.328 407.594 197.188C407.713 198.426 407.983 199.239 407.167 200.204L406.554 199.699C403.31 192.781 399.134 181.97 392.909 177.454C384.613 171.435 369.239 176.249 359.873 177.965C367.101 172.693 377.414 168.754 383.184 161.837C389.421 154.359 385.189 140.575 384.262 131.705ZM381.3 170.045C388.513 170.639 393.751 170.771 398.759 176.603C399.521 177.491 400.15 178.451 400.773 179.438C401.093 179.945 400.926 179.749 401.326 180.108C401.413 174.452 400.877 168.506 405.233 164.147C406.969 162.41 409.154 160.947 411.134 159.484C405.31 159.651 400.818 160.145 396.231 155.92C394.223 154.071 392.974 151.63 391.085 149.812C390.412 157.754 388.707 163.786 382.37 169.164C382.017 169.462 381.66 169.756 381.3 170.045Z" fill="#FF2C4C"/>
<path d="M88.7821 344.232C92.9961 347.512 95.1301 363.898 103.669 369.975C111.924 375.85 124.34 373.113 133.514 371.44C127.846 375.693 121.15 378.376 115.573 382.675C104.297 391.366 109.821 401.226 112.298 412.374C112.718 414.267 113.35 416.241 113.113 418.189L112.184 418.313C108.492 410.993 101.719 397.407 94.7981 392.963C86.4761 387.618 74.4841 392.083 65.6171 394.175C70.8671 389.571 77.6561 387.148 83.1991 382.914C98.1991 371.454 86.6361 358.61 88.7101 344.642C88.7301 344.504 88.7581 344.368 88.7821 344.232ZM87.1451 385.742C92.6411 386.897 98.4301 387.986 101.711 393.069C102.094 393.661 102.441 394.27 102.815 394.868C103.376 395.765 103.087 395.46 103.983 395.97C104.354 394.963 104.305 395.421 104.283 394.62C104.704 385.521 109.091 383.598 114.737 377.475C105.704 376.321 102.001 374.828 95.7741 368.008C95.7011 367.928 95.6091 367.869 95.5261 367.799C95.1551 375.691 92.4301 380.112 87.1451 385.742Z" fill="#FF2C4C"/>
<path d="M263.561 73.2471C264.628 73.3511 265.308 73.5221 266.267 74.0021L266.533 74.9771C264.064 81.1771 238.203 119.077 233.379 123.443C231.905 122.98 231.346 122.717 230.607 121.414C232.044 117.389 238.661 109.709 241.373 105.737C248.715 94.9811 255.451 83.4281 263.561 73.2471Z" fill="#FF2C4C"/>
<path d="M291.787 109.413C292.067 109.558 292.37 109.665 292.627 109.848C293.542 110.501 293.646 111.497 293.743 112.514C293.202 113.779 292.994 114.059 291.82 114.858C286.593 118.419 280.662 121.293 275.213 124.566C266.261 129.943 257.147 136.46 247.64 140.688C247.445 140.626 247.233 140.603 247.055 140.502C246.121 139.968 246.06 139.215 245.809 138.271C246.828 135.947 285.856 113.112 291.787 109.413Z" fill="#FF2C4C"/>
<path d="M293.305 155.711C296.032 155.462 299.399 155.252 302.104 155.622C303.076 155.755 302.989 156.012 303.549 156.755C303.72 158.167 303.829 158.189 303.039 159.348C302.406 159.605 301.913 159.814 301.227 159.891C297.279 160.333 292.827 159.92 288.788 160.11C281.216 160.465 273.673 161.275 266.119 161.9C262.935 162.347 257.2 163.473 254.569 161.534C254.401 160.447 254.441 160.467 255.018 159.521C258.972 156.967 286.519 156.093 293.305 155.711Z" fill="#FF2C4C"/>
<path d="M179.315 451.394L179.802 451.923C179.54 456.408 180.073 460.652 180.685 465.084C166.268 465.685 155.833 470.655 145.027 480.114L144.263 480.216C148.806 474.493 155.545 470.53 161.208 465.979C167.242 461.13 173.038 455.925 179.315 451.394Z" fill="#FF2C4C"/>
</svg>
