<svg width="949" height="905" viewBox="0 0 949 905" fill="none" xmlns="http://www.w3.org/2000/svg">
<path d="M128.159 428.508L197.861 215.135L226.592 126.053C230.254 114.775 234.56 97.134 239.392 86.994C242.271 80.951 247.656 76.443 253.499 73.405C258.846 70.625 264.808 70.0751 270.69 71.1711C277.105 72.3661 283.528 74.791 289.811 76.608C304.181 80.698 318.497 84.9694 332.759 89.422L433.952 120.311C501.091 140.443 568.108 160.98 635.001 181.921C665.749 191.096 696.421 200.516 727.018 210.182C754.903 219.125 782.87 227.806 810.918 236.223C820.052 238.985 842.016 244.488 849.03 248.178C849.803 248.577 850.559 249.005 851.299 249.461C852.04 249.918 852.762 250.402 853.465 250.913C854.168 251.425 854.851 251.963 855.513 252.526C856.176 253.089 856.816 253.677 857.434 254.289C858.052 254.901 858.646 255.536 859.215 256.193C859.784 256.85 860.328 257.527 860.846 258.226C861.364 258.925 861.855 259.642 862.318 260.378C862.782 261.114 863.217 261.866 863.623 262.635C870.363 275.581 866.296 287.407 862.157 300.377L855.559 320.89C850.313 336.575 845.38 352.358 840.761 368.239C838.648 375.328 836.169 382.461 834.5 389.658L827.669 368.9C827.704 368.705 827.737 368.51 827.774 368.316C828.978 362.044 831.44 355.871 833.3 349.746C837.683 335.31 842.206 320.994 847.036 306.698C849.883 298.269 854.174 288.559 854.858 279.693C855.206 275.177 853.924 270.435 851.448 266.649C848.624 262.329 844.435 260.004 839.704 258.295C830.339 254.912 820.572 252.364 811.04 249.476L758.885 233.413L528.138 162.197L345.118 106.516L293.709 91.03C285.498 88.577 276.91 85.3791 268.504 83.8091C263.798 82.9301 259.723 84.141 255.837 86.89C255.481 87.1427 255.135 87.4081 254.799 87.6861C254.462 87.9641 254.137 88.254 253.822 88.556C253.507 88.858 253.203 89.171 252.91 89.495C252.618 89.819 252.338 90.153 252.07 90.497C251.802 90.8417 251.547 91.1957 251.305 91.5591C251.063 91.9217 250.834 92.293 250.619 92.673C250.404 93.0524 250.203 93.4394 250.016 93.834C249.829 94.2287 249.657 94.6294 249.5 95.036C245.688 105.04 243.088 115.819 239.832 126.043C230.946 153.948 222.408 182.003 213.278 209.824C198.215 254.643 183.5 299.575 169.133 344.622L149.495 405.523C147.023 413.205 144.053 420.789 141.743 428.507C189.297 413.746 236.448 397.69 283.891 382.561C293.347 379.498 302.77 376.337 312.161 373.08C319.025 370.69 325.797 368.023 332.902 366.426C327.872 364.43 322.385 363.843 317.271 362.072C323.334 342.964 328.849 323.679 335.97 304.93C352.989 310.736 370.63 316.067 388.035 320.604C384.487 330.415 382.481 340.599 379.304 350.503L388.147 347.799C394.144 327.786 401.308 308.115 407.026 288.028C399.414 285.371 350.126 269.958 345.537 270.189L345.558 271.248C351.291 274.843 377.372 281.945 385.442 283.955C383.536 289.867 381.666 295.791 379.832 301.726L385.285 303.457L386.838 298.057C390.013 298.969 393.197 299.85 396.324 300.915C395.145 305.204 393.69 309.396 391.957 313.492C384.083 311.739 376.261 309.394 368.529 307.089C370.51 301.124 372.662 295.155 374.376 289.11C358.313 284.18 342.522 279.636 326.992 273.124C326.806 278.518 325.181 283.399 323.258 288.412C320.506 287.765 311.263 286.264 309.946 283.925C309.78 283.63 309.644 283.32 309.493 283.017L311.201 282.986C316.983 272.117 333.588 225.855 334.933 214.259C336.878 214.591 338.854 214.865 340.78 215.291C337.755 224.266 334.824 233.272 331.988 242.309C329.536 249.861 326.78 257.438 325.178 265.231C328.872 266.556 332.73 267.735 336.313 269.326C337.27 266.986 338.288 264.658 339.084 262.257C362.242 269.106 385.501 276.891 409.024 282.358C416.375 258.868 423.797 235 432.454 211.958C424.128 207.682 413.867 205.802 404.87 203.129C389.007 198.416 373.245 193.547 357.304 189.074C354.272 200.712 350.301 212.127 346.637 223.58C343.333 233.906 340.315 244.472 336.643 254.67L331.905 252.907C336.838 238.258 341.17 223.566 345.632 208.775C347.763 201.711 350.32 194.669 352.12 187.52C325.495 179.779 298.926 171.846 272.415 163.722C265.758 181.446 260.336 199.73 254.65 217.784L234.633 281.202C230.978 293.177 227.162 305.101 223.183 316.972C220.949 323.761 218.426 330.521 216.587 337.426C236.378 343.026 255.995 349.644 275.536 356.078C285.674 359.416 296.419 362.24 306.229 366.352C308.234 367.193 309.986 367.969 311.359 369.701L311.267 370.783C309.9 371.865 308.826 372.344 307.044 372.153C301.889 371.602 289.104 366.062 283.423 364.211C259.046 356.233 234.619 348.414 210.14 340.754C222.091 301.853 234.389 263.062 247.035 224.381L260.18 183.554C262.972 174.978 266.21 166.321 268.494 157.599L391.616 193.855C407.35 198.562 423.03 203.647 438.822 208.133C428.318 239.541 418.096 271.041 408.155 302.632C403.528 317.114 398.272 331.297 394.338 346.005C409.921 341.337 425.161 335.705 440.593 330.61C446.278 311.356 452.931 292.442 460.552 273.869C454.785 272.008 448.854 270.325 443.241 268.046C444.755 263.461 446.162 258.843 447.461 254.192C463.5 259.647 479.854 264.051 495.913 269.475C494.471 273.98 492.913 278.477 491.612 283.023C485.777 281.448 479.929 279.922 474.068 278.443C468.086 293.862 461.97 309.536 457.475 325.458C467.712 322.351 478.041 318.566 487.807 314.187C491.584 305.125 495.145 295.983 498.851 286.893C500.994 281.636 503.438 276.446 505.261 271.068L518.643 274.89C514.876 286.414 509.519 297.396 506.009 308.958L520.876 304.004C528.014 295.205 540.988 288.368 552.324 287.157C557.562 286.597 562.491 287.648 567.536 288.944C577.979 285.478 588.319 282.087 598.368 277.56C552.679 262.281 506.148 249.191 460.102 235.026C461.244 231.05 462.512 227.07 463.43 223.037C492.66 232.823 522.539 241.071 552.071 249.928C572.661 256.104 593.099 263.178 613.802 268.909C615.881 269.484 618.756 270.523 620.892 270.134C626.945 269.03 632.877 266.307 638.729 264.423C658.685 257.999 678.414 250.905 698.346 244.399C705.11 242.191 712.111 239.008 719.026 237.565C720.549 238.7 721.967 239.545 722.731 241.335C722.944 246.192 721.807 250.965 721.651 255.807C721.247 268.342 727.328 281.389 736.455 289.819C737.01 290.34 737.577 290.847 738.157 291.339C738.737 291.832 739.329 292.31 739.933 292.773C740.537 293.236 741.152 293.683 741.779 294.115C742.405 294.546 743.042 294.962 743.689 295.362C744.336 295.762 744.993 296.145 745.66 296.512C746.327 296.879 747.002 297.229 747.687 297.562C748.371 297.895 749.063 298.21 749.763 298.508C750.463 298.807 751.17 299.087 751.885 299.35C752.599 299.612 753.319 299.856 754.045 300.083C754.772 300.31 755.504 300.518 756.241 300.707C756.978 300.896 757.719 301.067 758.464 301.22C759.209 301.373 759.958 301.506 760.711 301.621C761.463 301.736 762.218 301.831 762.975 301.908C763.732 301.985 764.49 302.042 765.25 302.081C766.01 302.12 766.77 302.139 767.531 302.14C768.292 302.141 769.053 302.122 769.813 302.084C775.605 301.777 781.149 300.322 786.691 298.69C788.844 305.617 791.135 312.542 793.054 319.536C784.492 321.108 776.908 325.31 771.867 332.574C767.591 338.738 765.447 346.444 766.984 353.889C767.078 354.332 767.183 354.772 767.299 355.209C767.415 355.646 767.542 356.08 767.68 356.511C767.817 356.942 767.966 357.369 768.125 357.793C768.284 358.216 768.453 358.636 768.633 359.051C768.813 359.466 769.003 359.876 769.203 360.282C769.404 360.687 769.614 361.088 769.834 361.483C770.054 361.878 770.284 362.268 770.523 362.652C770.763 363.035 771.012 363.413 771.27 363.784C771.529 364.155 771.796 364.52 772.073 364.878C772.349 365.237 772.634 365.588 772.928 365.931C773.222 366.275 773.525 366.611 773.836 366.94C774.147 367.269 774.465 367.59 774.792 367.903C775.119 368.216 775.453 368.52 775.795 368.817C776.136 369.113 776.485 369.401 776.842 369.68C777.198 369.959 777.561 370.228 777.93 370.489C778.3 370.75 778.676 371.002 779.058 371.244C788.032 376.971 797.206 376.284 807.176 374.406C809.914 381.219 812.216 387.971 814 395.109C804.669 398.57 796.992 402.106 792.549 411.748C789.66 418.018 789.285 424.932 791.686 431.426C794.29 438.467 799.995 444.035 806.831 446.99C815.203 450.61 823.626 449.87 832.114 447.088C833.766 454.031 835.934 460.856 837.985 467.69C829.177 470.297 821.701 473.314 816.917 481.788C813.368 488.074 812.015 495.978 814.162 502.938C814.298 503.368 814.445 503.794 814.602 504.217C814.759 504.64 814.927 505.058 815.106 505.473C815.284 505.887 815.473 506.296 815.672 506.701C815.871 507.106 816.081 507.505 816.301 507.899C816.52 508.293 816.75 508.681 816.989 509.064C817.228 509.446 817.477 509.822 817.735 510.192C817.994 510.561 818.261 510.924 818.538 511.281C818.815 511.637 819.1 511.986 819.395 512.328C819.689 512.669 819.992 513.003 820.303 513.33C820.614 513.657 820.934 513.975 821.262 514.285C821.589 514.595 821.924 514.897 822.267 515.19C822.61 515.483 822.96 515.768 823.317 516.043C823.674 516.318 824.038 516.585 824.409 516.842C824.78 517.099 825.157 517.346 825.54 517.584C825.923 517.822 826.312 518.05 826.707 518.268C827.102 518.486 827.502 518.694 827.907 518.892C836.218 522.983 844.685 522.301 853.157 519.246C854.235 518.857 855.31 518.459 856.381 518.053L864.649 541.971C855.503 544.67 847.772 548.234 842.885 556.958C839.456 563.079 838.53 570.143 840.496 576.896C842.599 584.117 847.789 590.057 854.4 593.536C860.995 597.006 867.971 597.299 874.987 595.05C877.332 594.298 879.633 593.365 881.932 592.484C884.349 599.783 886.813 607.067 889.324 614.334C877.649 620.324 869.373 628.409 865.292 641.085C862.464 649.866 862.749 658.33 863.608 667.404C853.463 670.257 843.506 673.822 833.44 676.95C805.154 685.555 776.999 694.57 748.976 703.997C695.904 720.796 642.952 737.964 590.12 755.503L287.798 853.675C242.003 868.654 196.12 883.36 150.15 897.793C141.628 900.417 132.786 901.835 124.237 904.48C123.025 900.719 121.616 897.098 120.095 893.452C132.998 889.62 144.425 886.817 151.414 874.159C155.952 865.94 156.57 855.854 153.93 846.92C153.761 846.346 153.579 845.777 153.382 845.212C153.185 844.647 152.974 844.088 152.749 843.533C152.524 842.979 152.286 842.431 152.034 841.888C151.782 841.345 151.517 840.81 151.238 840.281C150.959 839.752 150.667 839.23 150.362 838.715C150.057 838.2 149.74 837.694 149.409 837.195C149.079 836.696 148.737 836.206 148.382 835.724C148.027 835.242 147.661 834.769 147.283 834.306C146.905 833.843 146.516 833.389 146.115 832.945C145.714 832.501 145.303 832.067 144.88 831.644C144.458 831.22 144.025 830.807 143.582 830.405C143.139 830.003 142.687 829.612 142.224 829.233C141.761 828.854 141.29 828.486 140.809 828.13C140.328 827.775 139.839 827.431 139.341 827.099C138.843 826.768 138.337 826.449 137.823 826.143C137.31 825.836 136.789 825.543 136.26 825.263C125.758 819.612 113.972 819.583 102.767 823.04C100.451 823.755 98.185 824.612 95.923 825.48C94.059 818.861 91.366 812.061 90.024 805.363C98.88 802.433 107.239 798.977 111.831 790.194C115.065 784.008 115.419 776.63 113.284 770.031C113.14 769.59 112.985 769.153 112.819 768.72C112.653 768.287 112.476 767.859 112.287 767.435C112.099 767.012 111.9 766.593 111.69 766.18C111.48 765.767 111.26 765.359 111.029 764.956C110.798 764.554 110.557 764.158 110.306 763.769C110.055 763.379 109.794 762.996 109.523 762.62C109.252 762.243 108.971 761.874 108.681 761.512C108.392 761.151 108.093 760.797 107.784 760.45C107.476 760.103 107.159 759.765 106.834 759.435C106.508 759.105 106.174 758.783 105.832 758.47C105.49 758.157 105.14 757.853 104.782 757.558C104.425 757.263 104.06 756.978 103.687 756.702C103.314 756.425 102.935 756.159 102.549 755.902C102.163 755.645 101.77 755.399 101.371 755.163C100.972 754.926 100.568 754.7 100.157 754.485C99.747 754.269 99.3314 754.064 98.91 753.87C98.4954 753.679 98.0757 753.498 97.651 753.327C97.227 753.156 96.799 752.997 96.367 752.848C95.935 752.699 95.4993 752.562 95.06 752.435C94.6213 752.308 94.1793 752.192 93.734 752.088C93.2893 751.983 92.842 751.89 92.392 751.808C91.9427 751.726 91.4913 751.655 91.038 751.596C90.5847 751.537 90.1304 751.489 89.675 751.453C89.219 751.417 88.7627 751.392 88.306 751.379C87.8493 751.366 87.3923 751.364 86.935 751.374C86.4783 751.384 86.022 751.405 85.566 751.438C85.11 751.471 84.6553 751.515 84.202 751.571C83.7487 751.627 83.2967 751.694 82.846 751.773C82.396 751.852 81.948 751.941 81.502 752.042C81.0567 752.143 80.614 752.256 80.174 752.38C79.734 752.503 79.2973 752.638 78.864 752.784C78.4307 752.929 78.0013 753.086 77.576 753.253C76.0753 753.84 74.5857 754.453 73.107 755.093C70.704 747.554 67.613 739.956 65.854 732.259C74.718 729.941 82.458 726.832 87.364 718.471C87.5853 718.102 87.7973 717.727 88 717.348C88.2027 716.968 88.396 716.584 88.58 716.195C88.764 715.806 88.938 715.412 89.102 715.014C89.2667 714.616 89.421 714.214 89.565 713.809C89.7097 713.404 89.844 712.995 89.968 712.583C90.0927 712.171 90.207 711.756 90.311 711.338C90.4144 710.921 90.5077 710.501 90.591 710.078C90.6737 709.656 90.7464 709.232 90.809 708.806C90.871 708.38 90.9223 707.953 90.963 707.525C91.0043 707.096 91.0347 706.667 91.054 706.237C91.074 705.807 91.0833 705.377 91.082 704.947C91.0807 704.516 91.0687 704.086 91.046 703.656C91.0234 703.227 90.99 702.798 90.946 702.369C90.902 701.941 90.8473 701.514 90.782 701.089C90.7173 700.664 90.642 700.24 90.556 699.818C90.47 699.396 90.3737 698.977 90.267 698.56C90.1603 698.153 90.0433 697.75 89.916 697.349C89.7893 696.948 89.6527 696.551 89.506 696.157C89.3593 695.764 89.2027 695.374 89.036 694.987C88.8693 694.601 88.6933 694.22 88.508 693.843C88.3227 693.466 88.128 693.093 87.924 692.726C87.72 692.359 87.5067 691.996 87.284 691.639C87.062 691.282 86.831 690.931 86.591 690.586C86.3517 690.241 86.1033 689.902 85.846 689.569C85.5893 689.236 85.3247 688.91 85.052 688.591C84.7787 688.272 84.4977 687.959 84.209 687.653C83.9203 687.348 83.624 687.05 83.32 686.759C83.0167 686.468 82.706 686.186 82.388 685.911C82.07 685.636 81.7454 685.369 81.414 685.11C81.0834 684.851 80.746 684.601 80.402 684.359C80.0587 684.117 79.709 683.884 79.353 683.659C78.9977 683.435 78.637 683.22 78.271 683.013C71.636 679.255 64.31 678.835 57.096 680.943C54.452 681.715 51.865 682.894 49.3637 684.03C46.9097 676.536 44.8087 668.935 42.4396 661.415C51.773 658.863 60.719 655.352 65.801 646.478C66.0204 646.097 66.23 645.71 66.43 645.318C66.63 644.927 66.82 644.53 67 644.129C67.1807 643.728 67.351 643.322 67.511 642.913C67.6717 642.503 67.822 642.089 67.962 641.672C68.1013 641.255 68.2307 640.835 68.35 640.412C68.4687 639.988 68.577 639.562 68.675 639.133C68.773 638.704 68.8603 638.273 68.937 637.84C69.0137 637.407 69.0797 636.972 69.135 636.536C69.1897 636.099 69.2337 635.662 69.267 635.223C69.3003 634.784 69.323 634.345 69.335 633.906C69.3463 633.466 69.347 633.026 69.337 632.586C69.327 632.147 69.306 631.708 69.274 631.269C69.242 630.83 69.1994 630.393 69.146 629.956C69.0927 629.519 69.0284 629.084 68.953 628.651C68.8784 628.217 68.7927 627.786 68.696 627.357C68.5993 626.928 68.4923 626.501 68.375 626.077C68.2703 625.695 68.156 625.316 68.032 624.94C67.9087 624.563 67.7757 624.19 67.633 623.821C67.4904 623.452 67.3387 623.086 67.178 622.724C67.0167 622.362 66.8467 622.004 66.668 621.651C66.4893 621.298 66.3017 620.949 66.105 620.605C65.9084 620.261 65.7033 619.922 65.49 619.589C65.2767 619.256 65.055 618.928 64.825 618.605C64.595 618.282 64.357 617.966 64.111 617.656C63.865 617.345 63.6117 617.041 63.351 616.743C63.0897 616.446 62.821 616.155 62.545 615.87C62.269 615.586 61.9863 615.309 61.697 615.039C61.407 614.769 61.1107 614.506 60.808 614.251C60.5047 613.996 60.1953 613.748 59.88 613.509C59.5647 613.27 59.2437 613.038 58.917 612.815C58.5897 612.591 58.257 612.376 57.919 612.169C57.5817 611.962 57.239 611.764 56.891 611.575C50.5082 608.058 43.1379 607.557 36.2342 609.755C33.4079 610.654 30.8773 611.955 28.3321 613.46C26.1032 605.921 23.8041 598.404 21.4346 590.909C30.9209 587.883 39.6343 583.999 44.6066 574.785C47.8202 568.83 48.4404 561.352 46.3601 554.92C44.2392 548.363 39.1856 543.33 33.0941 540.322C25.9031 536.77 18.2991 536.929 10.8694 539.554C9.60255 540.009 8.34575 540.491 7.09901 540.998L0.174316 519.187C12.9825 515.082 22.1839 509.428 28.5142 497.124C33.9512 486.557 34.0779 475.315 31.5398 463.893C45.0046 459.037 58.938 455.744 72.527 451.315C85.8437 446.884 99.1977 442.57 112.589 438.373C120.053 435.955 127.422 433.238 135.013 431.234L128.159 428.508ZM46.5912 472.845C46.5925 489.616 42.7745 504.662 30.6314 516.781C27.8096 519.554 24.7911 522.094 21.5758 524.4C33.9604 525.593 43.9188 529.442 51.948 539.292C58.299 547.082 61.569 556.803 60.398 566.86C60.3227 567.497 60.2317 568.132 60.125 568.765C60.0177 569.398 59.8954 570.027 59.758 570.653C59.62 571.28 59.4667 571.903 59.298 572.522C59.1293 573.141 58.9454 573.755 58.746 574.365C58.5474 574.975 58.3337 575.58 58.105 576.179C57.8764 576.778 57.633 577.372 57.375 577.959C57.1163 578.546 56.8437 579.127 56.557 579.701C56.2703 580.275 55.9697 580.842 55.655 581.401C55.3403 581.96 55.012 582.511 54.67 583.054C54.328 583.597 53.973 584.131 53.605 584.656C53.237 585.181 52.856 585.697 52.462 586.204C52.068 586.711 51.662 587.207 51.244 587.694C50.8258 588.18 50.3959 588.656 49.9541 589.121C49.5125 589.586 49.0595 590.041 48.5954 590.484C48.1312 590.927 47.6564 591.358 47.171 591.777C46.6856 592.196 46.1901 592.604 45.6846 592.999C44.4479 593.96 43.2006 594.906 41.9427 595.839C52.081 595.145 61.343 598.169 69.046 604.829C76.564 611.33 81.33 620.285 82.005 630.241C82.705 640.554 79.82 650.886 72.833 658.658C69.809 662.022 66.209 664.647 62.288 666.876C71.995 665.791 81.678 669.382 89.217 675.433C89.7077 675.82 90.1883 676.219 90.659 676.63C91.129 677.041 91.589 677.464 92.039 677.898C92.4884 678.332 92.9267 678.777 93.354 679.233C93.7814 679.689 94.197 680.155 94.601 680.632C95.005 681.109 95.3967 681.595 95.776 682.092C96.156 682.588 96.5234 683.093 96.878 683.608C97.2327 684.123 97.574 684.646 97.902 685.177C98.2307 685.709 98.5457 686.249 98.847 686.796C99.1483 687.343 99.436 687.898 99.71 688.459C99.984 689.021 100.244 689.589 100.489 690.164C100.734 690.739 100.965 691.319 101.182 691.905C101.399 692.491 101.6 693.082 101.787 693.679C101.974 694.275 102.147 694.875 102.304 695.48C102.461 696.085 102.602 696.694 102.729 697.305C102.856 697.917 102.967 698.532 103.063 699.149C103.159 699.767 103.24 700.387 103.305 701.008C103.368 701.646 103.416 702.285 103.448 702.926C103.481 703.566 103.498 704.207 103.499 704.848C103.5 705.489 103.485 706.13 103.455 706.771C103.425 707.412 103.38 708.051 103.319 708.689C103.258 709.328 103.181 709.964 103.089 710.599C102.997 711.233 102.89 711.865 102.768 712.494C102.645 713.123 102.507 713.75 102.354 714.373C102.201 714.996 102.033 715.614 101.85 716.228C101.667 716.843 101.469 717.452 101.256 718.057C101.043 718.662 100.816 719.262 100.574 719.856C100.332 720.449 100.076 721.037 99.806 721.619C99.5353 722.2 99.251 722.775 98.953 723.342C98.6544 723.91 98.3423 724.47 98.017 725.022C97.6917 725.575 97.353 726.119 97.001 726.655C96.649 727.191 96.2843 727.718 95.907 728.236C95.529 728.755 95.139 729.264 94.737 729.763C92.108 732.978 89.085 735.38 85.726 737.79C97.662 738.509 108.199 742.077 116.374 751.201C123.713 759.392 128.063 770.712 127.456 781.75C126.871 792.377 121.852 800.979 114.133 808.06C130.237 808.686 143.504 812.149 154.833 824.272C163.281 833.313 168.857 846.762 168.352 859.209C168.051 866.63 165.677 873.233 162.758 879.974C169.114 878.282 175.36 876.244 181.622 874.239C198.645 869.575 215.425 863.903 232.192 858.403L294.511 838.125L543.94 756.922L749.139 690.31L822.758 666.4C831.621 663.459 840.764 661.084 849.476 657.733C849.952 641.677 854.182 626.377 866.155 615.027C868.314 612.98 870.764 611.276 873.133 609.485C859.629 609.743 848.573 607.55 838.502 597.819C838.035 597.371 837.58 596.912 837.136 596.441C836.692 595.97 836.26 595.489 835.84 594.997C835.419 594.505 835.012 594.003 834.617 593.491C834.222 592.979 833.839 592.457 833.47 591.926C833.101 591.395 832.745 590.855 832.402 590.306C832.059 589.757 831.73 589.2 831.415 588.635C831.1 588.07 830.8 587.498 830.513 586.918C830.226 586.338 829.954 585.751 829.696 585.158C829.439 584.564 829.196 583.964 828.968 583.359C828.74 582.754 828.527 582.143 828.33 581.527C828.133 580.911 827.95 580.29 827.783 579.665C827.616 579.04 827.465 578.412 827.329 577.779C827.194 577.146 827.074 576.511 826.97 575.872C826.865 575.233 826.777 574.593 826.705 573.95C826.632 573.307 826.576 572.662 826.535 572.017C826.495 571.371 826.471 570.725 826.462 570.078C826.457 569.431 826.468 568.784 826.495 568.137C826.522 567.49 826.565 566.845 826.623 566.2C826.682 565.555 826.756 564.912 826.845 564.271C826.935 563.63 827.04 562.991 827.161 562.355C827.282 561.719 827.419 561.086 827.57 560.457C827.722 559.828 827.889 559.203 828.071 558.582C828.253 557.961 828.45 557.344 828.663 556.733C828.875 556.121 829.102 555.515 829.344 554.915C829.585 554.314 829.841 553.72 830.112 553.132C830.383 552.544 830.668 551.963 830.967 551.389C831.266 550.815 831.579 550.248 831.906 549.689C832.233 549.13 832.573 548.58 832.926 548.038C833.279 547.495 833.646 546.962 834.026 546.438C834.405 545.913 834.797 545.398 835.202 544.893C835.607 544.388 836.023 543.893 836.452 543.408C836.881 542.923 837.321 542.448 837.773 541.985C840.915 538.792 844.421 536.435 848.396 534.397C844.278 534.486 839.952 534.809 835.854 534.428C827.395 533.642 817.791 528.606 811.723 522.768C804.543 515.861 800.476 505.196 800.397 495.309C800.312 484.695 804.803 474.842 812.315 467.428C814.317 465.452 816.64 463.508 819.01 461.989C807.145 461.891 797.704 458.736 789.225 450.183C781.564 442.455 777.335 432.862 777.475 421.905C777.611 411.316 782.96 400.737 790.51 393.458C792.375 391.66 794.439 390.065 796.475 388.467C784.633 388.645 774.684 385.482 766.008 377.139C765.536 376.694 765.075 376.237 764.626 375.769C764.177 375.301 763.739 374.822 763.314 374.332C762.889 373.842 762.476 373.342 762.076 372.832C761.675 372.321 761.288 371.801 760.913 371.271C760.539 370.741 760.178 370.202 759.831 369.654C759.484 369.106 759.15 368.55 758.83 367.985C758.511 367.42 758.205 366.848 757.914 366.269C757.623 365.689 757.347 365.102 757.085 364.508C756.823 363.915 756.576 363.315 756.345 362.709C756.113 362.103 755.896 361.492 755.695 360.875C755.494 360.258 755.308 359.636 755.138 359.01C754.968 358.384 754.814 357.754 754.675 357.12C754.536 356.487 754.413 355.85 754.306 355.21C754.199 354.57 754.109 353.928 754.034 353.283C753.959 352.638 753.901 351.992 753.858 351.345C753.815 350.698 753.789 350.05 753.779 349.401C753.666 339.075 757.747 327.828 765.119 320.491C766.244 319.377 767.431 318.334 768.68 317.363C769.93 316.392 771.233 315.499 772.59 314.684C754.777 314.905 739.294 309.879 726.302 297.3C715.179 286.53 709.764 272.836 709.526 257.466C709.502 255.954 709.689 254.932 708.966 253.565C684.986 262.904 660.032 270.356 635.643 278.61L473.034 332.718C331.318 380.739 189.17 427.448 46.5912 472.845Z" fill="#2CFF75"/>
<path d="M650.86 306.164C657.139 305.842 663.163 307.131 668.467 310.649C673.809 314.192 677.074 319.109 679.443 324.937C683.973 336.081 686.957 348.193 690.626 359.667C699.869 388.571 708.517 417.651 718.047 446.463L752.862 552.564C757.978 567.733 763.299 582.765 768.124 598.043C770.332 605.034 772.943 612.178 774.355 619.375C776.073 628.132 773.688 638.624 768.607 645.968C765.418 650.576 759.995 654.794 754.706 656.74C744.7 660.422 734.27 663.446 724.142 666.846C689.633 678.432 654.875 689.258 620.262 700.506L395.867 774.329C354.589 787.942 313.238 801.331 271.814 814.496L240.988 824.703C234.015 827.026 226.95 829.708 219.699 830.997C212.215 831.237 204.471 828.878 198.556 824.245C194.16 820.802 192 817.456 189.988 812.299C187.076 804.834 184.981 796.894 182.54 789.257C177.813 774.768 173.186 760.246 168.659 745.693L132.663 632.495C122.14 599.863 110.642 567.428 101.015 534.519C99.066 527.859 95.794 520.864 95.1 513.948C94.259 505.569 97.402 496.813 102.695 490.37C106.586 485.634 111.775 482.488 117.495 480.435C145.305 470.452 173.877 462.024 201.981 452.862L446.623 374.04L602.401 321.924C615.046 317.758 639.206 307.383 650.86 306.164ZM218.488 818.589C230.531 815.636 242.449 811.196 254.236 807.331L311.43 788.697L498.326 727.241L666.406 672.509L720.098 654.788C729.708 651.644 739.591 649.053 749.066 645.537C752.813 644.146 756.265 642.17 758.46 638.704C761.697 633.593 763.32 626.725 761.853 620.788C758.614 607.676 753.317 594.658 749.112 581.786L720.925 495.493L684.173 379.655C680.979 369.609 677.603 359.596 674.536 349.514C672.478 342.75 670.773 335.655 668.271 329.053C666.893 325.417 665.106 322.553 661.684 320.533C659.055 318.982 655.653 318.065 652.597 318.105C645.346 319.514 638.148 322.604 631.109 324.905C615.726 329.872 600.397 335.002 585.123 340.297C549.095 352.644 512.796 364.249 476.625 376.171L227.765 458.442L162.313 479.518C150.027 483.388 137.548 486.893 125.408 491.188C119.597 493.244 114.709 495.225 111.122 500.574C107.448 506.055 107.416 510.039 108.795 516.193C110.244 522.657 112.616 529.047 114.676 535.341C117.884 545.047 121.034 554.772 124.126 564.515L159.175 673.214L191.025 773.338C194.757 784.802 197.911 796.728 202.207 807.972C203.512 811.386 205.318 813.823 208.468 815.775C211.521 817.668 214.918 818.619 218.488 818.589Z" fill="#2CFF75"/>
<path d="M316.148 505.025L316.75 505.239C319.645 510.548 321.234 517.278 323.221 523.05C328.446 538.219 333.29 553.46 338.268 568.707C344.719 588.465 351.833 607.986 358.581 627.64L377.817 684.83C372.263 686.921 366.467 688.522 360.824 690.384L321.576 703.222C283.425 715.555 245.44 728.377 207.619 741.688L205.85 742.128C204.914 741.197 204.574 740.163 204.159 738.936C203.26 736.282 202.998 733.433 202.123 730.764C196.91 714.863 191.444 699.039 186.354 683.091C173.288 642.155 160.759 601.095 146.975 560.387C165.787 555.31 184.354 548.604 202.874 542.535L316.148 505.025Z" fill="#2CFF75"/>
<path d="M313.376 511.595C316.739 515.992 337.906 583.645 341.467 594.206L360.13 648.925C363.779 659.589 367.667 670.231 370.879 681.036C355.574 687.077 339.522 691.818 323.878 696.92L279.901 711.548C256.752 719.06 233.304 726.452 210.632 735.305C210.174 735.473 209.772 735.357 209.295 735.305C206.031 730.66 205.04 722.826 203.212 717.37C195.812 695.293 188.91 673.111 181.976 650.882C173.031 621.812 163.66 592.881 153.862 564.089C175.223 556.586 196.982 550.047 218.488 542.971L313.376 511.595Z" fill="#2CFF75"/>
<path d="M221.687 549.999L222.388 550.291C228.285 569.296 234.698 588.13 240.782 607.076C221.549 612.393 202.537 618.411 183.748 625.132C183.354 625.235 183.647 625.192 182.917 624.817C180.155 617.812 178.055 610.404 175.733 603.235C171.997 591.851 168.359 580.436 164.819 568.989C183.318 561.652 203.663 558.378 221.687 549.999Z" fill="#704CFF"/>
<path d="M214.702 562.571C215.25 562.483 215.7 562.625 216.239 562.729C219.301 566.582 227.4 594.421 229.647 600.932L191.107 613.117L189.633 613.435C186.782 611.043 177.739 580.486 176.093 575.006C188.2 569.458 201.836 565.892 214.702 562.571Z" fill="#2CEFFF"/>
<path d="M210.565 572.088L211.176 572.12C213.606 573.964 218.282 591.506 219.567 595.512C211.441 598.526 202.985 600.925 194.764 603.709L194.612 603.726C194.363 603.593 194.071 603.521 193.866 603.327C193.507 602.99 186.722 582.451 185.862 579.942C193.664 576.817 202.379 573.942 210.565 572.088Z" fill="#704CFF"/>
<path d="M249.466 648.667C251.762 651.866 254.464 663.73 255.894 667.986L268.833 705.436C260.604 708.427 252.038 710.709 243.692 713.375C233.771 716.544 223.952 720.088 214.116 723.512C213.979 723.493 213.83 723.51 213.703 723.455C213.434 723.338 213.146 723.219 212.947 723.005C211.903 721.881 196.693 672.103 194.639 665.811C200.276 663.474 206.628 662.018 212.474 660.197L249.466 648.667Z" fill="#704CFF"/>
<path d="M242.277 659.983L243.181 659.97C245.606 661.815 255.746 694.248 257.255 699.527C245.16 703.276 233.252 707.514 221.107 711.148C220.373 711.411 220.132 711.367 219.379 711.277C216.174 706.763 208.226 678.829 206.244 671.736C217.961 667.094 230.288 663.863 242.277 659.983Z" fill="#2CEFFF"/>
<path d="M238.082 670.019L238.941 669.959C240.459 671.528 246.492 690.938 247.752 694.572C240.039 696.848 232.371 699.269 224.75 701.835C224.384 701.818 224.074 701.551 223.742 701.394C220.129 693.882 217.791 685.065 215.176 677.114C222.827 674.801 230.463 672.436 238.082 670.019Z" fill="#704CFF"/>
<path d="M305.497 522.542L307.256 522.368C310.208 524.273 324.522 571.279 326.167 577.879C308.607 583.719 291.037 589.295 273.608 595.538C272.872 595.802 272.652 595.779 271.9 595.701C269.804 591.709 268.797 585.828 267.325 581.425C262.671 567.507 257.784 553.707 253.505 539.665C270.87 534.062 288.201 528.354 305.497 522.542Z" fill="#704CFF"/>
<path d="M302.291 532.604C307.145 545.506 311.1 558.948 315.606 571.999C303.154 576.168 290.652 580.179 278.1 584.034C275.835 581.835 265.975 550.551 264.585 545.448L302.291 532.604Z" fill="#2CEFFF"/>
<path d="M296.564 543.576L297.008 543.616C299.565 546.051 304.265 562.132 305.535 566.428C298.018 569.15 290.275 571.352 282.637 573.715L281.752 573.755C279.396 571.094 275.238 555.007 273.775 550.425C281.164 547.631 288.956 545.67 296.564 543.576Z" fill="#704CFF"/>
<path d="M341.262 621.977L342.149 622.366C348.174 640.465 354.963 658.322 360.771 676.505C342.522 682.285 324.425 688.542 306.12 694.142L305.146 694.187C301.622 687.94 299.244 678.296 297.043 671.372C293.856 660.999 290.426 650.707 286.752 640.497C305.046 635.026 323.553 629.134 341.262 621.977Z" fill="#704CFF"/>
<path d="M335.878 633.597C338.409 635.445 347.841 666.055 349.465 670.886C336.911 674.44 324.636 678.891 312.111 682.543L311.183 682.331C307.765 676.735 300.942 654.149 298.363 646.637C310.468 641.738 323.325 637.19 335.878 633.597Z" fill="#2CEFFF"/>
<path d="M331.1 643.5L331.421 643.554C333.62 645.06 338.043 662.369 338.937 665.994C331.582 668.569 324.144 670.875 316.623 672.914L316.107 672.849C314.431 671.177 309.562 655.023 308.319 651.484C315.769 648.516 323.531 646.168 331.1 643.5Z" fill="#704CFF"/>
<path d="M245.126 544.01L245.669 544.186C246.148 545.462 246.613 546.706 247.38 547.842C251.174 553.455 252.545 564.231 254.566 571.147C254.207 571.239 253.85 571.341 253.491 571.431C252.782 571.61 251.898 571.722 251.253 572.068C249.973 572.754 249.539 573.569 249.007 574.86C249.304 576.031 249.549 576.295 250.66 576.865C252.237 577.674 254.996 576.539 256.612 576.072C257.69 578.782 259.226 582.028 259.525 584.92C259.748 587.081 259.176 587.907 257.85 589.481C258.276 591.235 261.29 594.612 262.344 596.311C257.882 598.602 255.423 601.637 253.382 606.193C250.27 613.14 250.155 619.015 252.92 626.126C259.935 623.801 276.403 618.185 283.109 620.529C284.109 620.879 284.537 621.162 285.594 621.011L286.112 620.069C285.651 619.362 285.922 619.627 285.122 619.122C284.035 618.436 282.939 617.897 282.074 616.92C281.495 616.266 281.709 616.446 281.853 615.424C283.118 613.986 284.759 613.62 286.527 613.015C284.27 608.807 282.985 604.668 282.097 599.993C283.249 599.319 284.203 598.879 285.499 598.493C287.01 599.005 287.194 599.5 288.151 600.733C291.606 600.746 291.274 597.721 293.666 596.479C295.16 595.704 297.406 595.459 299.057 595.119C299.815 597.922 300.854 600.064 302.331 602.551C301.98 603.465 302.144 603.098 301.704 603.996L301.387 604.633L301.814 605.777C302.536 605.784 303.27 605.75 303.921 606.128C306.109 607.398 306.923 611.47 307.658 613.732L299.227 616.363C300.885 619.527 302.352 622.693 303.719 625.993L295.634 629.007C294.409 625.713 293.297 622.051 291.432 619.067C289.39 620.948 289.227 627.002 287.244 629.818C283.961 634.481 273.244 639.308 271.536 643.663L272.087 644.351C274.263 644.656 276.25 643.812 278.306 643.175C281.199 649.216 288.846 664.448 286.925 670.484L285.195 671.005C282.506 669.443 281.432 666.893 280.076 664.24L279.86 663.987C276.998 663.119 270.059 665.566 266.946 666.247C265.978 664.26 264.94 662.159 264.183 660.085C263.739 658.868 263.434 658.081 263.959 656.854C265.103 656.578 265.546 656.528 266.454 655.735C266.385 654.607 266.398 654.563 265.665 653.71C263.942 654.004 262.238 654.509 260.545 654.949C259.775 652.888 259.191 650.727 258.536 648.625C262.479 644.978 263.706 642.554 265.348 637.467C271.232 634.768 276.054 632.22 280.832 627.788C273.076 630.705 264.944 632.212 256.872 633.996C256.874 634.332 256.873 634.668 256.879 635.004C256.926 637.676 256.637 640.754 255.58 643.253C255.213 644.12 255.194 644.27 254.286 644.582C251.459 643.104 250.286 637.893 249.257 635.07C245.714 636.171 235.365 641.358 232.514 640.771C232.19 640.705 231.875 640.596 231.549 640.541C230.373 640.344 229.251 640.709 228.265 641.316C228.301 642.211 228.277 643.043 228.186 643.934C226.181 645.497 222.653 645.906 220.188 646.515L219.774 645.653C219.573 645.231 219.388 644.802 219.169 644.389C216.538 639.431 215.959 633.361 214.045 627.995C216.477 626.93 219.024 626.233 221.564 625.476C222.735 628.585 224.159 631.631 225.477 634.682C227.099 634.065 228.803 633.646 230.475 633.18L227.286 623.9L231.664 620.63C233.942 624.466 235.985 628.361 237.98 632.349C239.687 631.735 241.337 631.063 242.989 630.314C243.659 628.921 242.528 628.811 242.361 627.268C242.96 626.648 243.848 625.898 243.996 625.002C244.813 620.055 243.38 615.138 244.674 609.945C246.252 603.611 250.007 597.906 253.275 592.329C251.62 589.213 250.819 585.794 249.391 582.586C247.977 579.409 246.889 581.586 244.42 580.638C243.524 579.074 243.884 577.638 243.573 575.876C242.73 575.353 241.847 574.819 241.115 574.143C239.225 572.398 237.938 568.097 238.087 565.553C238.194 563.721 241.397 564.937 242.571 563.844C241.962 558.318 239.313 552.203 237.672 546.82C240.095 545.762 242.644 544.925 245.126 544.01Z" fill="#2C75FF"/>
<path d="M273.3 651.167C274.985 651.778 275.428 652.225 276.18 653.91C276.891 655.503 277.379 656.692 276.821 658.329C275.991 658.427 275.378 658.568 274.578 658.235C273.84 657.928 273.189 656.59 272.987 655.859C272.498 654.088 272.525 652.768 273.3 651.167Z" fill="#2C75FF"/>
<path d="M205.11 627.567C206.609 628.494 208.07 635.145 208.712 637.211C205.024 637.971 201.883 638.459 198.726 640.654L198.942 642.287C203.054 643.242 206.428 642.069 210.393 640.993C211.581 643.438 212.419 646.007 213.313 648.57L202.88 651.796L192.057 655.561C190.045 648.305 187.627 641.126 185.382 633.937L205.11 627.567Z" fill="#2C75FF"/>
<path d="M335.067 602.578C337.814 605.202 339.335 613.405 340.463 617.172C334.271 619.557 327.909 621.521 321.605 623.589C321.525 623.556 321.44 623.533 321.365 623.49C319.318 622.309 316.69 612.577 315.771 609.916C321.855 606.817 328.62 604.782 335.067 602.578Z" fill="#2C75FF"/>
<path d="M330.531 610.504C331.499 611.272 331.799 611.327 332.267 612.518L331.83 613.361C330.105 614.506 328.639 614.668 326.611 614.927C325.889 614.834 325.571 614.56 324.972 614.171L325.201 613.374C326.772 611.951 328.602 611.305 330.531 610.504Z" fill="#2C75FF"/>
<path d="M289.577 675.036C291.208 676.007 292.328 680.092 293.033 681.843C286.067 684.651 278.806 686.843 271.675 689.201L270.989 689.214C269.687 687.074 269.186 684.191 268.511 681.781C275.615 679.839 282.591 677.367 289.577 675.036Z" fill="#2C75FF"/>
<path d="M266.972 602.038C268.426 602.051 269.881 602.08 271.264 602.584C272.886 603.176 274.166 604.548 274.857 606.11C275.599 607.791 275.481 609.644 274.72 611.296C273.676 613.561 271.981 614.148 269.799 615.032C268.738 615.098 267.606 615.204 266.573 614.894C264.889 614.387 263.432 612.918 262.691 611.356C261.871 609.623 261.847 607.519 262.575 605.749C263.448 603.626 264.997 602.911 266.972 602.038Z" fill="#2C75FF"/>
<path d="M283.648 690.039L284.166 690.212C285.635 692.557 286.366 695.391 287.255 698L276.101 702.048C274.164 700.796 273.283 696.19 272.621 693.989C276.196 692.477 279.981 691.318 283.648 690.039Z" fill="#2C75FF"/>
<path d="M327.945 583.567C329.716 585.246 330.428 589.642 331.082 591.999C328.639 593.246 326.251 594.179 323.661 595.059C322.063 592.726 321.316 589.118 320.454 586.41C322.957 585.477 325.454 584.53 327.945 583.567Z" fill="#2C75FF"/>
<path d="M274.694 668.56L274.931 668.64C276.486 670.157 277.26 673.416 278.039 675.457C274.991 676.589 271.754 677.341 268.615 678.194L267.671 678.279C266.436 676.624 266.089 674.122 265.578 672.136C268.537 670.798 271.659 669.721 274.694 668.56Z" fill="#2C75FF"/>
<path d="M314.941 588.093L315.755 588.356C317.136 590.936 317.973 593.737 318.897 596.503L312.095 599.069C310.329 597.637 308.858 592.391 307.841 590.129C310.204 589.437 312.57 588.759 314.941 588.093Z" fill="#2C75FF"/>
<path d="M690.801 567.518L691.103 567.515C693.064 568.723 695.1 576.364 696.041 578.935L402.263 675.362L401.839 675.327C399.254 673.38 397.897 666.809 396.878 663.656C414.564 658.645 431.734 652.319 449.257 646.838C514.552 625.945 579.708 604.624 644.723 582.875C660.099 577.825 675.374 572.398 690.801 567.518Z" fill="#2CFF75"/>
<path d="M685.66 550.57L685.849 550.597C687.93 552.305 689.597 559.382 690.564 562.058C674.634 566.516 658.819 572.148 643.1 577.332L572.892 600.448L395.803 657.949L395.408 658.192C393.599 656.691 392.242 650.099 391.432 647.599C410.171 640.544 429.23 635.047 448.247 628.871L542.477 597.956L630.051 568.729C648.472 562.534 666.977 555.903 685.66 550.57Z" fill="#2CFF75"/>
<path d="M629.039 408.061C631.13 410.354 632.366 416.645 633.357 419.69C619.553 424.836 605.365 428.996 591.332 433.46L533.552 452.169C472.209 472.351 410.733 492.117 349.122 511.469L348.305 511.082C347.046 507.924 346.052 504.721 345.07 501.469C363.522 494.937 382.452 489.392 401.042 483.202L517.894 444.427C555.077 432.716 592.125 420.594 629.039 408.061Z" fill="#2CFF75"/>
<path d="M535.464 474.57L536.346 474.452L536.751 474.999C536.47 480.925 534.652 486.917 533.919 492.842C532.615 503.386 532.177 514.106 530.421 524.58C544.035 537.088 557.316 549.98 570.776 562.658C565.187 565.062 559.282 566.951 553.456 568.691C548.463 561.805 525.581 540.546 517.861 535.525C521.674 549.084 526.502 562.445 530.96 575.808L526.405 577.526C523.244 578.743 520.025 579.815 516.824 580.921C506.924 550.773 496.306 520.881 484.969 491.245C489.918 489.328 495.165 487.982 500.248 486.451C502.855 494.154 505.881 501.72 508.595 509.388C510.853 515.768 512.77 522.373 515.439 528.587C515.831 512.246 517.879 495.79 518.685 479.436C524.296 477.891 529.875 476.195 535.464 474.57Z" fill="#2CFF75"/>
<path d="M582.795 459.507L583.586 459.768L588.734 474.376C580.976 477.265 572.914 479.633 565.05 482.249C567.013 488.96 569.916 495.595 572.401 502.142C579.846 499.869 587.245 497.428 594.658 495.052C595.895 500.021 597.898 504.798 599.284 509.744C592.545 512.866 584.977 514.811 577.895 517.003C580.222 525.164 583.279 533.023 586.462 540.881C594.676 539.045 602.897 535.723 611.026 533.35C611.637 536.18 612.583 538.91 613.482 541.658L615.844 548.323C603.064 553.354 589.558 557.133 576.492 561.423L544.928 471.412C557.647 467.751 570.269 463.783 582.795 459.507Z" fill="#2CFF75"/>
<path d="M474.927 495.691L475.287 495.798C477.348 497.729 478.906 509.09 479.557 512.346C474.634 512.917 468.724 513.924 464.638 516.866C460.618 519.759 458.882 524.684 458.294 529.425C456.933 540.393 462.375 557.659 469.264 566.21C472.604 570.357 477.246 572.927 482.553 573.443C490.073 574.175 495.688 570.905 501.198 566.279C502.9 571.969 504.532 577.741 506.793 583.237C504.164 584.763 501.392 585.971 498.624 587.221C495.617 588.444 492.514 589.332 489.315 589.885C480.53 591.334 472.065 588.812 464.972 583.589C451.977 574.022 444.679 555.468 442.497 539.974C440.934 528.879 442.747 516.777 449.838 507.772C456.247 499.632 465.048 496.891 474.927 495.691Z" fill="#2CFF75"/>
<path d="M640.871 440.569C642.995 442.701 645.248 452.572 646.411 455.932C641.437 457.968 636.207 459.491 631.1 461.164C638.703 485.979 647.945 510.51 656.405 535.061C651.225 536.296 646.102 538.178 641.023 539.79C638.837 534.276 636.97 528.592 634.978 523.002C631.714 514.072 629.133 504.879 626.034 495.887C622.644 486.051 618.689 476.416 614.775 466.781C609.039 468.654 603.381 470.763 597.637 472.628C596.39 467.279 594.449 462.107 592.656 456.921C608.666 451.283 624.871 446.248 640.871 440.569Z" fill="#2CFF75"/>
<path d="M396.641 521.457L397.729 521.406C400.005 522.521 402.794 532.995 404.131 535.966C398.962 538.353 393.262 540.002 387.86 541.829C390.139 550.501 393.576 558.921 396.514 567.396C402.039 583.194 407.483 599.021 412.846 614.876C408.106 617.073 402.999 618.691 398.092 620.492L392.816 606.121C385.781 586.178 379.543 565.993 372.295 546.118C366.818 547.765 361.376 549.519 355.968 551.379L350.977 536.656C366.129 531.309 381.657 527.374 396.641 521.457Z" fill="#2CFF75"/>
<path d="M419.875 514.076L420.538 514.172C422.256 515.931 447.825 593.45 450.777 602.14C446.054 603.668 441.359 605.28 436.692 606.974C434.026 604.104 408.089 526.644 406.007 518.578C410.668 517.195 415.191 515.409 419.875 514.076Z" fill="#2CFF75"/>
<path d="M341.701 316.854C353.12 320.583 364.78 323.645 376.254 327.225C373.905 336.414 370.568 345.308 368.026 354.446L359.615 357.528L346.774 361.98C341.147 359.296 335.15 358.01 329.12 356.572C333.664 343.451 337.353 330.045 341.701 316.854Z" fill="#704CFF"/>
<path d="M349.665 328.561C352.264 328.284 354.471 328.18 356.952 329.172C357.348 329.329 357.735 329.506 358.113 329.703C358.491 329.9 358.858 330.115 359.214 330.348C359.57 330.582 359.913 330.833 360.244 331.102C360.575 331.371 360.891 331.655 361.193 331.956C361.495 332.257 361.781 332.572 362.05 332.902C362.32 333.232 362.572 333.575 362.807 333.93C363.042 334.285 363.259 334.652 363.456 335.029C363.654 335.406 363.832 335.793 363.991 336.188C365.296 339.39 365.348 343.07 363.919 346.24C362.18 350.098 359.168 351.976 355.36 353.444C352.721 353.529 350.064 353.668 347.552 352.686C347.167 352.531 346.79 352.356 346.423 352.163C346.055 351.97 345.698 351.758 345.352 351.528C345.006 351.298 344.673 351.051 344.352 350.787C344.031 350.524 343.724 350.244 343.432 349.949C343.139 349.654 342.863 349.344 342.602 349.021C342.341 348.698 342.097 348.363 341.87 348.014C341.643 347.666 341.435 347.307 341.245 346.938C341.055 346.569 340.884 346.191 340.732 345.804C339.464 342.589 339.471 338.771 340.919 335.617C342.797 331.528 345.709 330.082 349.665 328.561Z" fill="#2CFF75"/>
<path d="M186.369 0.141602C191.725 0.957502 197.371 3.5378 202.609 5.1623L236.452 15.3088L371.162 56.4948L918.844 225.412C917.834 235.203 918.046 244.347 921.755 253.581C926.826 266.21 935.7 274.371 948.075 279.665C945.891 287.581 943.447 295.443 941.123 303.32C936.448 300.724 931.714 298.395 926.353 297.672C925.936 297.618 925.517 297.576 925.097 297.544C924.678 297.512 924.258 297.49 923.837 297.479C923.416 297.468 922.995 297.468 922.574 297.479C922.153 297.489 921.733 297.51 921.314 297.542C920.894 297.573 920.475 297.615 920.058 297.669C919.64 297.721 919.224 297.785 918.81 297.859C918.395 297.933 917.983 298.017 917.573 298.112C917.163 298.206 916.756 298.311 916.351 298.427C915.946 298.542 915.545 298.668 915.146 298.804C914.748 298.939 914.353 299.085 913.962 299.241C913.571 299.396 913.184 299.561 912.801 299.737C912.418 299.912 912.04 300.097 911.667 300.291C911.294 300.485 910.926 300.689 910.563 300.902C910.2 301.115 909.842 301.337 909.491 301.569C909.139 301.799 908.793 302.039 908.453 302.288C908.114 302.536 907.781 302.793 907.454 303.059C902.069 307.472 898.74 314.379 898.048 321.27C898.009 321.662 897.98 322.055 897.96 322.449C897.941 322.843 897.931 323.237 897.931 323.632C897.931 324.026 897.941 324.42 897.96 324.814C897.98 325.208 898.009 325.601 898.048 325.993C898.087 326.385 898.136 326.777 898.194 327.167C898.253 327.557 898.321 327.945 898.398 328.332C898.476 328.718 898.563 329.102 898.66 329.485C898.757 329.867 898.863 330.246 898.978 330.624C899.093 331 899.218 331.374 899.352 331.746C899.486 332.116 899.629 332.484 899.781 332.848C899.934 333.211 900.095 333.571 900.265 333.927C900.435 334.283 900.614 334.634 900.801 334.981C900.988 335.327 901.184 335.669 901.389 336.007C901.593 336.344 901.806 336.676 902.027 337.003C902.248 337.329 902.476 337.65 902.713 337.966C902.95 338.281 903.194 338.59 903.446 338.894C909.685 346.439 918.572 348.752 927.893 349.637C925.039 358.381 922.722 367.319 919.501 375.936C914.879 373.629 910.106 371.437 904.944 370.721C898.035 369.762 890.997 371.934 885.587 376.277C885.25 376.544 884.921 376.82 884.598 377.104C884.275 377.388 883.96 377.681 883.652 377.981C883.345 378.281 883.045 378.59 882.753 378.906C882.461 379.221 882.177 379.544 881.902 379.875C881.627 380.205 881.361 380.542 881.103 380.887C880.845 381.231 880.596 381.581 880.356 381.938C880.116 382.294 879.885 382.657 879.663 383.026C879.442 383.394 879.23 383.768 879.028 384.148C878.826 384.527 878.634 384.911 878.451 385.301C878.268 385.69 878.096 386.084 877.934 386.483C877.771 386.881 877.619 387.283 877.478 387.689C877.336 388.095 877.205 388.504 877.084 388.917C876.963 389.329 876.853 389.745 876.754 390.164C876.655 390.582 876.566 391.002 876.489 391.426C876.411 391.848 876.344 392.273 876.288 392.7C876.232 393.126 876.187 393.553 876.153 393.982C876.12 394.406 876.098 394.831 876.086 395.257C876.075 395.682 876.074 396.108 876.084 396.534C876.094 396.959 876.115 397.384 876.146 397.809C876.177 398.233 876.219 398.657 876.271 399.079C876.324 399.501 876.387 399.922 876.461 400.342C876.535 400.761 876.619 401.178 876.714 401.593C876.809 402.008 876.914 402.421 877.029 402.831C877.144 403.24 877.27 403.646 877.406 404.05C877.542 404.453 877.688 404.853 877.844 405.25C878 405.646 878.166 406.037 878.342 406.425C878.517 406.813 878.703 407.196 878.898 407.574C879.093 407.952 879.297 408.326 879.511 408.694C879.725 409.062 879.948 409.424 880.18 409.782C880.412 410.138 880.653 410.489 880.902 410.834C881.151 411.179 881.409 411.517 881.676 411.849C881.943 412.181 882.218 412.506 882.501 412.824C888.367 419.351 895.621 420.996 903.969 421.605L896.264 446.627C889.951 443.999 883.463 441.66 876.515 442.814C868.218 444.191 861.343 449.59 856.584 456.304C854.792 450.639 853.334 444.883 851.831 439.137C862.286 433.147 870.579 430.186 882.667 429.967C878.75 427.017 875.018 423.972 871.942 420.121C871.546 419.623 871.162 419.115 870.791 418.598C870.42 418.081 870.061 417.555 869.716 417.021C869.371 416.486 869.039 415.943 868.72 415.393C868.401 414.841 868.096 414.283 867.805 413.717C867.514 413.151 867.237 412.578 866.974 411.999C866.711 411.419 866.462 410.833 866.228 410.242C865.994 409.65 865.775 409.052 865.57 408.45C865.365 407.847 865.175 407.24 865 406.628C864.825 406.016 864.666 405.4 864.521 404.78C864.376 404.16 864.247 403.537 864.134 402.911C864.02 402.285 863.922 401.656 863.839 401.025C863.756 400.393 863.688 399.761 863.637 399.127C863.585 398.492 863.549 397.857 863.528 397.221C863.508 396.585 863.503 395.948 863.514 395.312C863.525 394.676 863.551 394.04 863.594 393.405C863.636 392.769 863.694 392.136 863.767 391.504C865.035 381.191 870.559 371.039 878.87 364.729C887.493 358.182 897.726 356.567 908.251 358.083C903.122 355.939 898.94 353.316 895.233 349.123C894.792 348.63 894.363 348.126 893.947 347.612C893.532 347.097 893.129 346.572 892.74 346.038C892.351 345.502 891.975 344.958 891.613 344.404C891.252 343.85 890.904 343.287 890.571 342.716C890.238 342.144 889.919 341.565 889.615 340.977C889.312 340.389 889.023 339.794 888.749 339.192C888.475 338.59 888.217 337.981 887.974 337.366C887.731 336.75 887.503 336.129 887.292 335.503C887.081 334.875 886.885 334.243 886.706 333.607C886.526 332.97 886.363 332.329 886.216 331.685C886.069 331.039 885.938 330.391 885.823 329.74C885.709 329.088 885.611 328.434 885.53 327.778C885.449 327.121 885.384 326.463 885.337 325.803C885.289 325.143 885.258 324.482 885.243 323.821C885.228 323.159 885.231 322.498 885.25 321.837C885.269 321.175 885.304 320.515 885.357 319.856C886.139 309.638 891.422 299.509 899.219 292.879C908.64 284.869 918.81 283.752 930.721 284.677C928.675 283.195 926.573 281.753 924.644 280.121C910.847 268.446 906.204 251.709 904.719 234.393C792.56 198.943 680.19 164.176 567.611 130.092C552.094 124.678 536.157 120.152 520.48 115.2C474.975 101.046 429.365 87.2391 383.65 73.7778L191.265 15.0818C177.808 28.5279 164.733 36.5398 145.349 36.6208C149.342 39.2508 153.164 41.9828 156.452 45.4808C163.483 52.9608 167.36 62.2098 166.953 72.5408C166.572 82.2018 162.324 91.8298 155.199 98.4088C146.954 106.022 135.604 109.81 124.471 109.305C126.753 111.062 128.996 112.816 130.993 114.9C138.393 122.624 142.821 132.726 142.545 143.505C142.524 144.161 142.486 144.817 142.433 145.472C142.38 146.126 142.31 146.779 142.224 147.43C142.138 148.081 142.036 148.73 141.917 149.376C141.799 150.022 141.665 150.665 141.515 151.305C141.364 151.944 141.198 152.579 141.017 153.211C140.835 153.841 140.638 154.468 140.425 155.09C140.212 155.711 139.984 156.327 139.741 156.937C139.498 157.547 139.239 158.15 138.966 158.748C138.693 159.345 138.405 159.935 138.102 160.518C137.799 161.101 137.482 161.676 137.151 162.243C136.82 162.81 136.475 163.369 136.116 163.919C135.757 164.469 135.385 165.01 134.999 165.542C134.613 166.073 134.214 166.595 133.803 167.107C133.391 167.619 132.967 168.12 132.531 168.611C132.094 169.101 131.646 169.581 131.185 170.05C130.725 170.518 130.253 170.974 129.77 171.42C120.916 179.59 111.687 181.186 100.017 180.802C101.433 181.588 102.791 182.464 104.091 183.432C105.39 184.398 106.62 185.447 107.78 186.578C108.246 187.036 108.7 187.506 109.143 187.988C109.586 188.469 110.016 188.961 110.434 189.464C110.853 189.966 111.258 190.479 111.651 191.002C112.044 191.524 112.424 192.056 112.791 192.598C113.158 193.139 113.511 193.689 113.851 194.248C114.19 194.806 114.516 195.373 114.828 195.948C115.139 196.522 115.437 197.104 115.72 197.694C116.003 198.284 116.271 198.88 116.524 199.483C116.778 200.085 117.017 200.694 117.24 201.309C117.463 201.923 117.672 202.542 117.865 203.168C118.058 203.792 118.235 204.421 118.397 205.055C118.559 205.688 118.705 206.325 118.835 206.966C118.966 207.607 119.08 208.251 119.179 208.897C119.278 209.543 119.36 210.192 119.427 210.843C119.494 211.493 119.544 212.144 119.579 212.798C119.614 213.45 119.632 214.104 119.634 214.758C119.609 224.853 115.274 235.728 108.076 242.846C99.852 250.978 89.963 254.517 78.541 254.531C80.409 255.776 82.1537 257.175 83.775 258.727C91.101 265.705 95.748 276.294 95.947 286.411C96.137 296.064 91.694 306.349 84.996 313.228C76.634 321.818 66.301 325.341 54.538 325.551C56.325 326.732 58.021 327.946 59.626 329.367C67.613 336.438 72.999 346.145 73.604 356.9C74.172 367.026 70.455 376.34 63.67 383.794C54.851 393.484 44.2955 396.419 31.5869 397.055C33.482 398.298 35.2655 399.685 36.9375 401.216C38.6095 402.746 40.1484 404.4 41.5542 406.178C52.238 419.615 53.934 434.674 52.054 451.212C47.1374 452.136 42.4571 453.979 37.4888 454.772C40.442 442.735 40.8636 430.607 34.7017 419.472C29.4346 409.954 20.7717 404.598 10.5366 401.631C12.6224 393.904 15.392 386.204 18.0714 378.657C22.5551 381.869 27.7314 383.793 33.2779 383.927C33.7317 383.934 34.1853 383.93 34.6388 383.915C35.0924 383.899 35.5452 383.873 35.9974 383.835C36.4496 383.796 36.9005 383.746 37.3501 383.685C37.7998 383.624 38.2476 383.552 38.6935 383.468C39.1395 383.384 39.583 383.288 40.0241 383.182C40.4653 383.075 40.9034 382.957 41.3386 382.829C41.7738 382.7 42.2054 382.56 42.6334 382.41C43.0615 382.259 43.4855 382.098 43.9053 381.926C44.3252 381.754 44.7405 381.571 45.1511 381.378C45.5617 381.184 45.9672 380.981 46.3674 380.767C46.7677 380.553 47.1623 380.33 47.5512 380.096C47.9402 379.862 48.3229 379.618 48.6994 379.365C49.076 379.111 49.4459 378.849 49.8091 378.577C50.1724 378.305 50.5285 378.024 50.8774 377.734C51.2265 377.444 51.568 377.145 51.902 376.838C52.2354 376.53 52.561 376.215 52.879 375.891C57.64 371.077 60.698 364.526 60.454 357.686C60.226 351.273 57.476 344.835 52.756 340.456C47.0533 335.167 39.1479 332.824 31.5119 333.082C34.4361 324.509 36.6685 315.734 39.9011 307.258C44.1777 309.568 48.4296 311.613 53.293 312.297C53.7197 312.353 54.1477 312.398 54.577 312.434C55.0064 312.468 55.436 312.493 55.866 312.507C56.296 312.52 56.7264 312.523 57.157 312.516C57.5877 312.508 58.0177 312.489 58.447 312.461C58.877 312.431 59.3057 312.391 59.733 312.341C60.1604 312.291 60.5864 312.23 61.011 312.159C61.4357 312.087 61.8584 312.005 62.279 311.913C62.699 311.82 63.1167 311.717 63.532 311.604C63.9474 311.49 64.3597 311.367 64.769 311.234C65.1784 311.1 65.584 310.956 65.986 310.802C66.3887 310.648 66.7867 310.485 67.18 310.311C67.574 310.137 67.9637 309.954 68.349 309.762C68.7337 309.568 69.1134 309.366 69.488 309.154C69.8634 308.942 70.2327 308.722 70.596 308.492C70.96 308.261 71.318 308.022 71.67 307.774C72.022 307.526 72.3677 307.27 72.707 307.005C73.049 306.745 73.384 306.476 73.712 306.2C74.0407 305.922 74.3617 305.637 74.675 305.344C74.989 305.05 75.295 304.749 75.593 304.44C75.8917 304.131 76.182 303.815 76.464 303.491C76.746 303.167 77.0197 302.836 77.285 302.498C77.5497 302.16 77.8057 301.815 78.053 301.464C78.301 301.113 78.5394 300.756 78.768 300.393C78.9974 300.029 79.217 299.66 79.427 299.286C79.6377 298.911 79.8384 298.531 80.029 298.147C80.2197 297.762 80.4007 297.372 80.572 296.978C80.7427 296.584 80.9034 296.186 81.054 295.784C81.204 295.381 81.344 294.975 81.474 294.566C81.604 294.156 81.723 293.744 81.831 293.329C81.9397 292.913 82.0377 292.494 82.125 292.074C82.2124 291.653 82.2887 291.231 82.354 290.807C82.4194 290.382 82.474 289.956 82.518 289.529C83.296 282.58 81.427 275.623 77.044 270.148C71.409 263.11 63.969 260.955 55.402 260.076L63.283 236.927C67.072 238.427 70.861 239.9 74.877 240.67C82.294 242.093 89.814 240.908 96.087 236.525C101.837 232.507 105.743 226.021 106.867 219.12C106.936 218.687 106.995 218.253 107.042 217.818C107.089 217.382 107.124 216.945 107.149 216.508C107.174 216.07 107.188 215.633 107.19 215.195C107.193 214.756 107.184 214.318 107.164 213.881C107.144 213.443 107.113 213.006 107.071 212.57C107.029 212.134 106.976 211.699 106.911 211.266C106.846 210.832 106.771 210.4 106.685 209.971C106.598 209.541 106.501 209.114 106.393 208.69C106.284 208.265 106.165 207.843 106.036 207.425C105.906 207.006 105.766 206.591 105.615 206.18C105.464 205.768 105.302 205.361 105.13 204.959C104.959 204.555 104.777 204.157 104.585 203.763C104.392 203.369 104.19 202.981 103.979 202.597C103.767 202.213 103.545 201.836 103.314 201.464C103.083 201.092 102.842 200.726 102.592 200.366C102.342 200.006 102.083 199.652 101.815 199.306C96.005 191.719 88.007 189.177 78.977 188.064L86.613 163.669C91.281 165.689 95.906 167.597 101.034 168.004C108.344 168.585 115.965 166.253 121.527 161.438C121.834 161.174 122.133 160.903 122.426 160.625C122.719 160.347 123.004 160.061 123.283 159.769C123.562 159.476 123.833 159.177 124.097 158.871C124.36 158.564 124.616 158.251 124.865 157.933C125.113 157.613 125.353 157.288 125.584 156.958C125.816 156.626 126.04 156.29 126.255 155.948C126.47 155.606 126.676 155.258 126.874 154.906C127.071 154.554 127.26 154.197 127.44 153.835C127.62 153.473 127.791 153.107 127.952 152.737C128.114 152.366 128.266 151.992 128.409 151.614C128.552 151.236 128.685 150.854 128.809 150.47C128.933 150.085 129.047 149.698 129.152 149.308C129.256 148.917 129.351 148.524 129.436 148.13C129.521 147.734 129.596 147.337 129.661 146.939C129.726 146.54 129.781 146.14 129.826 145.738C129.871 145.336 129.906 144.934 129.931 144.531C129.954 144.105 129.966 143.68 129.968 143.254C129.969 142.828 129.96 142.402 129.94 141.976C129.92 141.55 129.889 141.126 129.848 140.702C129.807 140.277 129.755 139.854 129.692 139.433C129.63 139.011 129.557 138.592 129.473 138.174C129.39 137.756 129.296 137.341 129.191 136.928C129.086 136.515 128.971 136.105 128.846 135.698C128.721 135.29 128.585 134.886 128.44 134.486C128.295 134.085 128.139 133.688 127.974 133.296C127.808 132.903 127.633 132.515 127.448 132.132C127.263 131.748 127.069 131.369 126.864 130.995C126.66 130.621 126.447 130.252 126.225 129.889C126.002 129.525 125.771 129.168 125.53 128.816C125.289 128.464 125.04 128.119 124.782 127.78C124.524 127.44 124.258 127.108 123.983 126.783C123.708 126.457 123.426 126.138 123.135 125.827C117.243 119.444 109.984 117.355 101.616 117.069C104.215 108.04 106.971 99.0598 109.885 90.1278C115.341 93.3188 120.92 95.6068 127.314 95.8098C134.467 96.0368 141.633 93.6528 146.818 88.6178C147.105 88.3411 147.384 88.0575 147.657 87.7668C147.929 87.4761 148.194 87.1788 148.452 86.8748C148.71 86.5715 148.96 86.2615 149.203 85.9448C149.446 85.6288 149.68 85.3071 149.907 84.9798C150.134 84.6518 150.352 84.3188 150.562 83.9808C150.772 83.6421 150.974 83.2985 151.167 82.9498C151.36 82.6018 151.545 82.2488 151.721 81.8908C151.897 81.5335 152.064 81.1718 152.221 80.8058C152.379 80.4405 152.528 80.0711 152.668 79.6978C152.808 79.3245 152.938 78.9481 153.059 78.5688C153.18 78.1895 153.292 77.8071 153.394 77.4218C153.497 77.0365 153.589 76.6491 153.672 76.2598C153.755 75.8698 153.829 75.4781 153.893 75.0848C153.956 74.6915 154.01 74.2971 154.055 73.9018C154.099 73.5058 154.133 73.1088 154.158 72.7108C154.183 72.3135 154.198 71.9155 154.203 71.5168C154.212 71.1168 154.212 70.7168 154.201 70.3168C154.19 69.9175 154.169 69.5185 154.138 69.1198C154.107 68.7205 154.065 68.3225 154.014 67.9258C153.963 67.5291 153.902 67.1341 153.831 66.7408C153.76 66.3468 153.678 65.9551 153.587 65.5658C153.496 65.1765 153.396 64.7895 153.285 64.4048C153.175 64.0208 153.055 63.6395 152.925 63.2608C152.795 62.8828 152.656 62.5081 152.507 62.1368C152.358 61.7655 152.2 61.3981 152.033 61.0348C151.866 60.6715 151.689 60.3125 151.504 59.9578C151.319 59.6031 151.124 59.2538 150.921 58.9098C150.718 58.5651 150.507 58.2258 150.287 57.8918C150.066 57.5578 149.838 57.2295 149.601 56.9068C149.364 56.5848 149.12 56.2688 148.867 55.9588C148.614 55.6488 148.353 55.3455 148.085 55.0488C147.817 54.7515 147.542 54.4615 147.259 54.1788C140.597 47.4408 132.161 45.6528 123.042 45.4498L129.712 23.1787C135.821 24.5577 141.983 25.036 148.218 24.2449C164.668 22.1577 176.481 12.7968 186.369 0.141602Z" fill="#2CFF75"/>
<path d="M245.368 273.313C253.258 274.698 261.511 278.17 269.196 280.623C280.068 284.092 291.143 287.132 301.895 290.942C295.844 310.706 290.419 331.049 282.856 350.284C275.871 348.8 268.853 346.063 262.06 343.842L226.061 332.043C233.055 312.666 238.733 292.818 245.368 273.313Z" fill="#704CFF"/>
<path d="M250.806 284.524C263.948 288.635 277.043 292.832 290.237 296.787C286.533 310.915 281.647 325.135 276.566 338.83C272.075 337.778 267.586 335.952 263.193 334.496L237.595 325.998C241.662 312.075 246.79 298.475 250.806 284.524Z" fill="#2CFF75"/>
<path d="M255.824 294.924C263.426 297.362 271.729 299.475 278.897 302.995C278.4 307.559 277.165 312.022 275.982 316.449C275.181 319.442 273.596 327.668 271.229 329.032C263.413 326.036 255.363 323.509 247.43 320.838C249.932 312.149 252.911 303.486 255.824 294.924Z" fill="#704CFF"/>
<path d="M276.686 173.557C296.166 179.524 315.819 184.847 335.291 190.842C330.054 210.097 323.483 229.449 316.832 248.263C297.117 243.541 277.748 237.151 258.388 231.164C262.456 218.764 266.596 206.368 270.465 193.904C272.558 187.162 274.215 180.16 276.686 173.557Z" fill="#704CFF"/>
<path d="M282.999 184.948C296.444 189.44 310.443 192.358 323.784 197.13C319.227 210.609 314.921 224.168 310.866 237.807C305.65 236.44 300.478 234.392 295.321 232.771C286.928 230.185 278.496 227.733 270.026 225.414C274.653 212.022 278.977 198.533 282.999 184.948Z" fill="#2CFF75"/>
<path d="M287.402 194.756C296.223 196.761 304.898 199.588 313.487 202.411C311.583 210.299 309.529 219.77 306.105 227.084C297.307 225.441 287.345 222.718 279.082 219.229C280.784 211.07 284.561 202.631 287.402 194.756Z" fill="#704CFF"/>
<path d="M362.802 199.024C382.267 205.177 401.909 210.64 421.419 216.626C416.495 235.597 409.91 254.262 403.677 272.837C395.971 269.415 387.592 267.402 379.526 265.007C367.842 261.566 356.193 258.011 344.578 254.343C351.429 236.314 357.196 217.485 362.802 199.024Z" fill="#704CFF"/>
<path d="M368.808 210.434C382.486 214.414 396.185 218.32 409.905 222.151C406.675 234.955 402.342 248.521 397.62 260.877L356.787 248.588C360.87 235.96 364.094 222.826 368.808 210.434Z" fill="#2CFF75"/>
<path d="M374.003 219.59C382.446 222.201 391.015 224.667 399.303 227.732C397.406 235.708 395.106 243.566 392.403 251.306C384.114 248.443 375.294 246.454 367.24 243.019C368.803 235.035 371.446 227.298 374.003 219.59Z" fill="#704CFF"/>
<path d="M340.42 282.751C346.88 283.946 353.539 286.52 359.834 288.475L356.893 298.286C353.51 297.691 350.174 296.793 346.841 295.97C345.999 298.506 345.008 300.795 343.8 303.175C339.732 302.653 335.698 301.183 331.774 300.012C330.538 304.009 329.085 307.927 327.65 311.855C323.027 310.788 318.264 309.576 313.97 307.535C311.387 315.514 309.037 323.504 305.947 331.31C309.88 332.74 313.752 334.237 317.597 335.889L315.811 344.972C311.846 343.386 307.75 342.072 303.716 340.669C304.415 337.71 305.208 334.748 305.532 331.72C304.807 333.243 304.099 334.775 303.41 336.315C302.6 338.14 301.976 339.548 302.734 341.536C303.743 342.092 304.37 342.422 304.996 343.406C305.09 345.618 304.483 347.863 302.982 349.521C301.068 349.807 300.639 348.361 298.844 348.314C296.715 351.322 295.828 356.059 294.613 359.568L289.232 358.052C291.951 349.382 295.071 340.865 297.887 332.231C301.803 320.223 305.413 308.137 309.466 296.168L319.754 299.215C321.164 295.982 322.169 292.457 323.314 289.114C328.037 290.528 332.788 291.843 337.567 293.058C338.431 289.595 339.42 286.176 340.42 282.751Z" fill="#2CFF75"/>
<path d="M270.481 244.536C275.502 246.566 280.54 248.569 285.529 250.676C288.485 251.925 291.419 253.622 294.493 254.496L295.278 253.178C297.951 252.051 304.769 255.371 307.662 256.426C306.357 259.955 305.265 263.585 304.09 267.161L313.512 269.84C312.046 274.242 310.807 278.286 311.201 282.986L309.493 283.017C306.217 282.48 303.118 281.133 300.039 279.942L303.418 268.849C300.134 268.153 296.292 267.349 293.341 265.801C292.608 264.327 292.814 262.869 292.811 261.25L292.231 261.145C291.803 261.661 290.781 263.121 290.009 263.16C285.056 263.414 273.613 256.329 268.677 257.191C270.108 258.438 272.119 258.908 273.89 259.517C272.381 263.598 271.019 267.631 269.909 271.839C262.379 269.515 254.88 267.096 247.411 264.583C248.69 260.078 250.243 255.638 251.702 251.189L266.917 255.308L270.481 244.536Z" fill="#2CFF75"/>
<path d="M278.317 262.831C281.206 264.352 284.492 265.457 287.521 266.704C286.716 269.872 285.813 273.012 284.813 276.124C281.388 274.956 277.926 273.907 274.429 272.976C275.871 269.658 277.065 266.225 278.317 262.831Z" fill="#2CFF75"/>
<path d="M315.294 311.479C318.926 312.549 322.775 313.22 326.474 314.061C325.523 316.613 324.548 319.156 323.55 321.69C320.753 322.524 315.772 320.253 313.06 319.387L315.294 311.479Z" fill="#2CFF75"/>
<path d="M254.393 237.938C257.458 238.819 260.117 239.638 262.97 241.104L260.701 249.445C257.653 248.749 254.626 247.973 251.619 247.118C252.328 244.034 253.447 240.961 254.393 237.938Z" fill="#2CFF75"/>
</svg>
