<svg width="1213" height="1371" viewBox="0 0 1213 1371" fill="none" xmlns="http://www.w3.org/2000/svg">
<path d="M628.989 796L582.745 810.824L558.004 853.77L604.739 838.437L628.989 796Z" fill="#FF6C2C"/>
<path d="M720.989 767.001L674.745 781.825L650.004 824.771L696.739 809.438L720.989 767.001Z" fill="#FF6C2C"/>
<path d="M810.989 738L764.745 752.824L740.004 795.77L786.739 780.437L810.989 738Z" fill="#FF6C2C"/>
<path d="M537.989 825L491.745 839.824L467.004 882.77L513.739 867.437L537.989 825Z" fill="#FF6C2C"/>
<path d="M669.989 926.001L623.745 940.825L599.004 983.771L645.739 968.438L669.989 926.001Z" fill="#FF6C2C"/>
<path d="M761.989 897.001L715.745 911.825L691.004 954.771L737.739 939.438L761.989 897.001Z" fill="#FF6C2C"/>
<path d="M851.989 869L805.745 883.824L781.004 926.77L827.739 911.437L851.989 869Z" fill="#FF6C2C"/>
<path d="M578.989 955.001L532.745 969.825L508.004 1012.77L554.739 997.438L578.989 955.001Z" fill="#FF6C2C"/>
<path d="M156.65 712.177L198.72 676.014L241.356 711.508L156.65 712.177Z" stroke="#FF6C2C" stroke-width="10"/>
<line x1="203.429" y1="484.677" x2="304.184" y2="676.72" stroke="#FF6C2C" stroke-width="10"/>
<line x1="138.721" y1="545.659" x2="283.646" y2="706.993" stroke="#FF6C2C" stroke-width="10"/>
<path d="M232.031 1018.25L200.983 1021.57L189.159 992.67L232.031 1018.25Z" stroke="#FF6C2C" stroke-width="8.74517"/>
<path d="M216.042 1083.63L226.373 1055.9L254.955 1063.59L216.042 1083.63Z" stroke="#FF6C2C" stroke-width="8.74517"/>
<line x1="144.517" y1="1043.61" x2="254.706" y2="1031.37" stroke="#FF6C2C" stroke-width="8.74517"/>
<g filter="url(#filter0_f_137_1062)">
<circle cx="558" cy="480" r="230" fill="url(#paint0_linear_137_1062)"/>
</g>
<g filter="url(#filter1_f_137_1062)">
<circle cx="981" cy="1139" r="111" fill="url(#paint1_linear_137_1062)"/>
</g>
<g filter="url(#filter2_f_137_1062)">
<circle cx="899" cy="472" r="111" fill="url(#paint2_linear_137_1062)"/>
</g>
<g filter="url(#filter3_f_137_1062)">
<circle cx="232" cy="677" r="111" fill="url(#paint3_linear_137_1062)"/>
</g>
<g filter="url(#filter4_f_137_1062)">
<circle cx="213.5" cy="1044.5" r="86.5" fill="url(#paint4_linear_137_1062)"/>
</g>
<path d="M464.728 349.025C467.034 348.944 469.178 349.025 471.376 349.802C477.65 352.017 482.679 357.969 487.802 362.014L518.486 386.64L640.817 486.834L673.159 513.107C676.329 515.716 679.674 518.15 682.753 520.863C684.976 522.82 687.108 525.039 688.362 527.757C689.8 530.872 689.834 534.38 688.598 537.567C687.616 540.101 686.102 542.256 683.874 543.813C677.49 548.275 665.624 552.233 658.213 555.321L615.668 573.287C607.486 576.62 599.422 580.246 591.271 583.658L521.537 612.858L494.94 623.893C488.881 626.441 482.892 629.228 476.736 631.53C471.181 633.608 465.199 635.324 459.518 632.573C456.003 630.87 453.115 627.762 451.986 623.987C450.181 617.947 451.398 599.856 451.445 592.337L451.499 549.522L451.619 426.472C451.61 406.108 451.058 385.619 451.446 365.271C451.502 362.353 452.112 359.51 453.496 356.922C455.807 352.602 460.234 350.385 464.728 349.025ZM472.595 430.46C475.194 437.479 483.502 449.911 487.727 457.023C499.078 475.783 510.15 494.708 520.941 513.796C522.423 516.612 524.19 521.192 527.506 522.152C528.757 522.513 530.116 522.303 531.335 521.919C534.485 520.927 551.017 513.158 553.665 511.46C555.092 510.547 556.415 509.301 556.717 507.562C556.925 506.358 556.649 505.144 556.251 504.011C554.298 498.442 551.807 492.964 549.708 487.43C542.573 468.527 535.203 449.716 527.6 430.997C525.914 426.861 521.122 413.443 518.844 410.294C518.381 409.654 518.2 409.555 517.462 409.396C511.025 411.466 504.729 415.085 498.569 417.912C490.917 421.424 479.413 425.821 472.595 430.46ZM678.522 536.609L678.116 536.734C671.997 538.675 665.911 541.664 659.976 544.162L621.89 560.43L515.657 605.15L487.013 617.428C481.576 619.795 475.927 622.767 470.244 624.424C467.776 625.143 464.808 625.537 462.431 624.299C461.555 623.842 460.473 622.925 460.126 621.97C458.58 617.714 459.569 594.818 459.611 588.975L460.105 525.029L459.918 428.113C459.826 414.524 459.821 400.936 459.904 387.348C459.906 380.445 459.649 373.476 459.894 366.58C459.99 363.879 460.315 361.267 461.783 358.918C462.259 358.159 462.946 357.494 463.831 357.248C466.302 356.561 468.334 357.925 470.918 356.571L471.284 355.955C469.953 354.667 467.894 354.31 466.109 354.339C465.876 354.343 465.643 354.355 465.409 354.362C462.607 355.078 460.44 355.934 458.878 358.501C457.572 360.65 457.334 362.985 457.279 365.445C456.959 379.738 457.434 394.152 457.361 408.464L457.149 547.559L456.992 597.694C456.967 604.82 455.944 616.257 457.531 622.812C457.746 623.701 458.043 624.197 458.662 624.846C458.772 624.961 458.878 625.081 458.989 625.195C460.869 627.106 463.815 627.837 466.428 627.795C469.372 627.749 472.358 626.566 475.071 625.504C485.711 621.339 496.123 616.587 506.615 612.069L553.511 592.157C585.904 578.768 618.194 565.133 650.38 551.253C654.241 549.621 677.227 540.716 678.901 539.087C679.233 538.764 679.232 538.696 679.401 538.332C679.247 537.315 679.279 537.295 678.522 536.609ZM556.474 565.165C563.069 563.825 568.856 561.277 572.61 555.404C575.554 550.797 576.198 544.967 574.908 539.706C574.834 539.399 574.752 539.094 574.662 538.791C574.573 538.488 574.475 538.187 574.371 537.89C574.266 537.591 574.154 537.296 574.034 537.004C573.914 536.711 573.787 536.422 573.653 536.136C573.518 535.85 573.377 535.568 573.229 535.289C573.08 535.01 572.924 534.735 572.762 534.465C572.599 534.194 572.43 533.927 572.254 533.665C572.078 533.403 571.895 533.145 571.706 532.891C571.517 532.638 571.322 532.39 571.121 532.147C570.919 531.903 570.711 531.665 570.498 531.433C570.284 531.2 570.064 530.973 569.839 530.751C569.614 530.53 569.384 530.314 569.148 530.104C568.912 529.894 568.67 529.69 568.424 529.492C568.178 529.294 567.926 529.103 567.67 528.918C567.414 528.733 567.154 528.554 566.888 528.383C566.623 528.21 566.354 528.045 566.081 527.887C562.951 526.034 559.057 524.921 555.405 525.004C549.172 525.62 543.615 527.365 539.548 532.521C539.334 532.798 539.126 533.08 538.925 533.368C538.724 533.655 538.531 533.948 538.344 534.245C538.158 534.543 537.98 534.844 537.809 535.15C537.637 535.456 537.474 535.767 537.318 536.081C537.162 536.395 537.015 536.713 536.875 537.035C536.735 537.356 536.603 537.681 536.479 538.01C536.356 538.338 536.24 538.669 536.133 539.003C536.026 539.337 535.927 539.673 535.836 540.012C535.746 540.351 535.664 540.693 535.591 541.035C535.518 541.378 535.453 541.723 535.397 542.069C535.34 542.415 535.293 542.762 535.254 543.111C535.215 543.46 535.185 543.809 535.163 544.159C535.142 544.509 535.129 544.86 535.125 545.211C535.121 545.561 535.125 545.912 535.139 546.262C535.152 546.613 535.174 546.963 535.205 547.312C535.236 547.662 535.276 548.01 535.324 548.357C535.374 548.681 535.432 549.002 535.498 549.323C535.564 549.644 535.638 549.962 535.721 550.279C535.803 550.595 535.893 550.91 535.991 551.222C536.09 551.534 536.196 551.844 536.309 552.151C536.423 552.457 536.544 552.761 536.674 553.061C536.802 553.362 536.939 553.66 537.083 553.953C537.227 554.247 537.378 554.537 537.537 554.823C537.696 555.109 537.862 555.391 538.034 555.669C538.207 555.947 538.387 556.22 538.574 556.489C538.76 556.758 538.953 557.022 539.153 557.281C539.353 557.54 539.56 557.794 539.772 558.043C539.985 558.291 540.203 558.534 540.429 558.772C540.654 559.01 540.884 559.241 541.121 559.467C541.357 559.693 541.599 559.913 541.847 560.127C542.095 560.34 542.348 560.548 542.606 560.749C542.864 560.95 543.127 561.144 543.395 561.332C547.41 564.184 551.609 565.214 556.474 565.165Z" fill="#FF6C2C"/>
<path d="M515.805 416C518.684 419.443 548.668 496.601 551.198 504.801C544.557 509.063 535.476 512.479 528.226 516C526.371 513.153 524.74 510.168 523.073 507.208C517.354 497.854 512.121 488.218 506.541 478.782L479 432.977C490.951 426.785 503.694 421.943 515.805 416ZM526.97 504.815C527.757 504.227 528.545 503.797 528.817 502.798C527.135 497.192 521.57 488.935 518.468 483.679C511.802 472.381 505.038 461.156 498.507 449.78C496.021 445.453 493.278 441.192 491.04 436.738C494.94 434.771 508.121 429.649 510.028 427.309C510.054 426.4 509.944 425.867 509.273 425.186C509.027 424.936 508.923 424.897 508.65 424.742C503.133 427.458 491.634 431.81 487.564 435.43C487.099 437.103 488.303 439.009 489.127 440.47C491.948 445.467 495.115 450.298 498.025 455.251L515.873 486.04C518.49 490.523 524.06 501.576 526.97 504.815Z" fill="#FF6C2C"/>
<path d="M555.821 530C558.937 530.143 561.979 530.858 564.563 532.676C567.782 534.94 569.853 538.543 570.462 542.408C570.503 542.66 570.537 542.913 570.564 543.166C570.593 543.42 570.614 543.674 570.628 543.929C570.643 544.184 570.652 544.439 570.653 544.694C570.655 544.949 570.65 545.204 570.639 545.459C570.628 545.714 570.61 545.969 570.586 546.223C570.561 546.477 570.53 546.73 570.493 546.983C570.455 547.235 570.412 547.486 570.362 547.737C570.312 547.987 570.255 548.235 570.192 548.483C570.129 548.73 570.06 548.976 569.985 549.22C569.91 549.464 569.828 549.705 569.74 549.945C569.653 550.184 569.559 550.422 569.459 550.657C569.359 550.891 569.253 551.123 569.141 551.353C569.03 551.583 568.912 551.809 568.789 552.032C568.665 552.255 568.536 552.476 568.402 552.692C568.267 552.91 568.127 553.123 567.982 553.332C567.836 553.542 567.685 553.748 567.53 553.95C564.473 557.939 560.751 559.263 555.993 559.991C552.046 560.092 548.837 559.386 545.633 556.935C545.441 556.791 545.252 556.642 545.068 556.488C544.884 556.333 544.703 556.175 544.527 556.012C544.351 555.849 544.179 555.681 544.011 555.509C543.844 555.337 543.68 555.161 543.522 554.98C543.363 554.8 543.209 554.616 543.06 554.427C542.911 554.239 542.766 554.047 542.627 553.852C542.487 553.656 542.353 553.457 542.224 553.255C542.095 553.052 541.971 552.846 541.853 552.637C541.734 552.429 541.621 552.217 541.514 552.002C541.406 551.787 541.303 551.57 541.207 551.35C541.11 551.13 541.019 550.908 540.934 550.684C540.849 550.459 540.769 550.233 540.696 550.004C540.622 549.775 540.554 549.545 540.493 549.313C540.431 549.081 540.375 548.847 540.326 548.612C540.276 548.377 540.232 548.141 540.194 547.904C540.157 547.666 540.125 547.428 540.099 547.189C540.07 546.931 540.047 546.672 540.03 546.414C540.014 546.154 540.005 545.895 540.001 545.635C539.998 545.375 540.001 545.115 540.011 544.856C540.021 544.596 540.038 544.337 540.061 544.078C540.084 543.82 540.114 543.561 540.149 543.304C540.186 543.047 540.228 542.791 540.277 542.536C540.326 542.281 540.382 542.027 540.444 541.774C540.506 541.522 540.574 541.272 540.649 541.023C540.723 540.774 540.804 540.527 540.891 540.282C540.979 540.038 541.072 539.795 541.171 539.555C541.27 539.315 541.376 539.078 541.487 538.843C541.599 538.609 541.716 538.377 541.839 538.148C541.962 537.919 542.091 537.694 542.226 537.472C542.36 537.249 542.5 537.03 542.646 536.815C542.791 536.6 542.942 536.389 543.099 536.181C543.255 535.974 543.417 535.77 543.583 535.571C546.795 531.769 551.071 530.493 555.821 530ZM550.141 555.307L550.649 554.382C548.561 550.362 544.765 548.676 546.737 542.583C548.561 536.95 555.374 536.381 555.58 533.734C555.268 533.401 554.979 533.036 554.604 532.774C550.298 534.38 546.674 536.772 544.777 541.159C543.574 543.942 543.33 547.282 544.582 550.095C545.669 552.539 547.683 554.328 550.141 555.307Z" fill="#FF6C2C"/>
<rect x="321.433" y="795.611" width="601.461" height="356.661" rx="25" transform="rotate(-17.585 321.433 795.611)" stroke="#FF6C2C" stroke-width="10"/>
<path d="M259.66 932.075C271.796 928.221 298.202 926.404 306.737 949.962C317.406 979.41 292.12 992.849 280.335 997.017" stroke="#FF6C2C" stroke-width="10"/>
<path d="M281.334 996.962C293.47 993.108 319.876 991.291 328.411 1014.85C339.08 1044.3 313.794 1057.74 302.009 1061.9" stroke="#FF6C2C" stroke-width="10"/>
<path d="M302.009 1061.9C314.146 1058.05 340.552 1056.23 349.087 1079.79C359.756 1109.24 334.47 1122.68 322.685 1126.85" stroke="#FF6C2C" stroke-width="10"/>
<path d="M322.685 1126.85C334.821 1122.99 361.228 1121.18 369.763 1144.73C380.431 1174.18 355.145 1187.62 343.361 1191.79" stroke="#FF6C2C" stroke-width="10"/>
<path d="M238.371 865.141C250.508 861.288 276.914 859.47 285.449 883.028C296.118 912.476 270.832 925.916 259.047 930.084" stroke="#FF6C2C" stroke-width="10"/>
<path d="M217.085 798.253C229.222 794.399 255.628 792.582 264.163 816.14C274.832 845.588 249.546 859.027 237.761 863.195" stroke="#FF6C2C" stroke-width="10"/>
<path d="M1019.01 690.435C1006.94 694.487 984.547 708.604 991.561 732.659C1000.33 762.728 1028.67 758.654 1040.65 755.063" stroke="#FF6C2C" stroke-width="10"/>
<path d="M1039.81 755.608C1027.74 759.659 1005.35 773.777 1012.36 797.832C1021.13 827.901 1049.47 823.827 1061.44 820.236" stroke="#FF6C2C" stroke-width="10"/>
<path d="M1061.44 820.236C1049.37 824.287 1026.98 838.405 1034 862.46C1042.76 892.529 1071.11 888.455 1083.08 884.864" stroke="#FF6C2C" stroke-width="10"/>
<path d="M1083.08 884.865C1071.01 888.916 1048.62 903.034 1055.63 927.089C1064.4 957.158 1092.74 953.084 1104.72 949.493" stroke="#FF6C2C" stroke-width="10"/>
<path d="M996.692 623.837C984.62 627.889 962.23 642.006 969.244 666.061C978.011 696.13 1006.36 692.056 1018.33 688.466" stroke="#FF6C2C" stroke-width="10"/>
<path d="M974.398 557.278C962.327 561.329 939.937 575.447 946.95 599.502C955.717 629.571 984.062 625.497 996.035 621.906" stroke="#FF6C2C" stroke-width="10"/>
<line x1="342.641" y1="1191.86" x2="1103.64" y2="949.856" stroke="#FF6C2C" stroke-width="10"/>
<line x1="218.646" y1="797.867" x2="966.646" y2="560.855" stroke="#FF6C2C" stroke-width="10"/>
<line x1="909.814" y1="1077.91" x2="1074.89" y2="1240.1" stroke="#FF6C2C" stroke-width="10"/>
<path d="M909.506 1111.98L937.589 1200.39L861.572 1147.24L909.506 1111.98Z" stroke="#FF6C2C" stroke-width="10"/>
<path d="M1063 1081.1L1018.29 1117.54L982.096 1072.64L1063 1081.1Z" stroke="#FF6C2C" stroke-width="10"/>
<path d="M908.839 505.253L932.794 465.846L972.07 490.014L908.839 505.253Z" stroke="#FF6C2C" stroke-width="7.9961"/>
<line x1="862.497" y1="323.388" x2="816.919" y2="549.43" stroke="#FF6C2C" stroke-width="7.9961"/>
<line x1="976.406" y1="318.962" x2="855.664" y2="533.401" stroke="#FF6C2C" stroke-width="7.9961"/>
<path d="M547.615 922.889L546.862 893.659L552.337 891.926L553.636 901.697L554.076 930.166L549.351 931.661L547.615 922.889ZM534.87 897.453L549.167 922.47L552.349 930.712L546.907 932.434L526.495 900.103L534.87 897.453ZM567.879 916.119L565.176 887.864L573.518 885.224L575.486 923.391L570.043 925.113L567.879 916.119ZM553.184 891.658L569.235 915.761L573.009 924.175L568.284 925.67L552.202 902.15L547.677 893.401L553.184 891.658ZM606.809 905.234L601.664 888.973C601.286 887.778 600.753 886.812 600.065 886.073C599.377 885.335 598.534 884.861 597.536 884.651C596.537 884.441 595.386 884.542 594.083 884.955C592.931 885.319 591.983 885.834 591.238 886.5C590.514 887.16 590.038 887.92 589.808 888.781C589.572 889.621 589.598 890.497 589.887 891.409L581.252 894.141C580.791 892.686 580.702 891.196 580.985 889.673C581.261 888.128 581.878 886.642 582.837 885.215C583.81 883.76 585.106 882.454 586.723 881.297C588.363 880.133 590.312 879.193 592.571 878.478C595.243 877.633 597.767 877.336 600.141 877.589C602.53 877.813 604.607 878.637 606.373 880.062C608.16 881.481 609.487 883.558 610.353 886.296L615.22 901.677C615.776 903.437 616.363 904.912 616.979 906.103C617.61 907.266 618.297 908.231 619.042 909L619.218 909.554L610.452 912.327C609.757 911.567 609.085 910.537 608.434 909.237C607.777 907.916 607.235 906.581 606.809 905.234ZM603.591 890.873L605.275 895.968L599.833 897.69C598.486 898.117 597.347 898.632 596.415 899.238C595.477 899.822 594.764 900.477 594.277 901.205C593.784 901.911 593.487 902.674 593.388 903.494C593.283 904.292 593.37 905.137 593.652 906.027C593.927 906.896 594.37 907.617 594.981 908.188C595.614 908.753 596.376 909.121 597.267 909.293C598.173 909.437 599.147 909.344 600.19 909.014C601.711 908.533 602.94 907.809 603.877 906.843C604.807 905.856 605.446 904.817 605.795 903.727C606.143 902.637 606.211 901.683 606 900.866L609.653 903.797C609.63 904.784 609.473 905.873 609.181 907.065C608.889 908.257 608.402 909.438 607.721 910.61C607.041 911.781 606.116 912.863 604.948 913.854C603.78 914.845 602.305 915.622 600.523 916.186C598.242 916.908 596.056 917.097 593.964 916.756C591.872 916.414 590.054 915.615 588.509 914.359C586.964 913.103 585.873 911.465 585.233 909.444C584.642 907.576 584.467 905.815 584.709 904.161C584.95 902.507 585.601 900.975 586.66 899.564C587.712 898.132 589.17 896.846 591.032 895.707C592.909 894.54 595.162 893.54 597.791 892.708L603.591 890.873ZM625.33 876.753L634.208 904.81L625.605 907.533L614.448 872.273L622.595 869.695L625.33 876.753ZM633.7 865.93L636.106 873.988C635.601 874.053 635.037 874.159 634.415 874.308C633.815 874.45 633.254 874.604 632.733 874.769C631.407 875.188 630.303 875.741 629.421 876.426C628.532 877.09 627.857 877.865 627.396 878.752C626.958 879.631 626.719 880.615 626.681 881.703C626.636 882.769 626.784 883.917 627.126 885.147L625.196 885.507C624.488 883.269 624.06 881.122 623.911 879.066C623.762 877.01 623.895 875.127 624.311 873.419C624.726 871.71 625.462 870.258 626.518 869.064C627.589 867.84 628.982 866.957 630.698 866.414C631.176 866.263 631.701 866.145 632.271 866.06C632.857 865.946 633.333 865.903 633.7 865.93ZM649.319 869.521L658.094 897.252L649.491 899.974L638.335 864.715L646.416 862.158L649.319 869.521ZM650.745 878.785L648.203 879.589C647.414 877.019 647.026 874.584 647.04 872.285C647.053 869.987 647.431 867.895 648.173 866.011C648.937 864.121 650.039 862.505 651.48 861.165C652.92 859.825 654.683 858.825 656.768 858.165C658.463 857.629 660.07 857.383 661.59 857.428C663.11 857.473 664.524 857.862 665.831 858.596C667.16 859.322 668.354 860.45 669.411 861.98C670.484 863.481 671.408 865.459 672.185 867.914L679.341 890.529L670.673 893.272L663.496 870.591C662.988 868.984 662.347 867.788 661.573 867.006C660.821 866.216 659.938 865.766 658.924 865.657C657.931 865.541 656.794 865.686 655.512 866.091C654.187 866.511 653.11 867.15 652.283 868.009C651.47 868.84 650.875 869.829 650.497 870.976C650.141 872.117 649.982 873.35 650.019 874.677C650.056 876.003 650.298 877.373 650.745 878.785ZM684.902 849.98L696.058 885.24L687.423 887.972L676.266 852.713L684.902 849.98ZM672.762 843.676C672.356 842.394 672.454 841.192 673.054 840.07C673.677 838.941 674.738 838.139 676.237 837.665C677.736 837.191 679.054 837.24 680.191 837.812C681.35 838.377 682.132 839.301 682.538 840.583C682.936 841.843 682.824 843.037 682.202 844.167C681.601 845.289 680.551 846.087 679.052 846.561C677.553 847.036 676.224 846.99 675.065 846.425C673.928 845.852 673.16 844.936 672.762 843.676ZM703.936 852.239L712.711 879.971L704.108 882.693L692.951 847.433L701.032 844.876L703.936 852.239ZM705.361 861.503L702.82 862.307C702.03 859.737 701.642 857.303 701.656 855.004C701.669 852.705 702.047 850.614 702.79 848.73C703.554 846.839 704.656 845.224 706.096 843.884C707.536 842.544 709.299 841.544 711.385 840.884C713.079 840.348 714.686 840.102 716.206 840.147C717.726 840.192 719.14 840.581 720.447 841.314C721.777 842.041 722.97 843.169 724.028 844.698C725.1 846.199 726.025 848.177 726.802 850.632L733.957 873.248L725.289 875.991L718.113 853.31C717.604 851.702 716.963 850.507 716.189 849.724C715.438 848.934 714.554 848.485 713.54 848.375C712.547 848.259 711.41 848.404 710.128 848.81C708.803 849.229 707.727 849.868 706.899 850.728C706.087 851.558 705.491 852.547 705.113 853.695C704.757 854.835 704.598 856.069 704.635 857.395C704.673 858.722 704.915 860.091 705.361 861.503ZM752.814 828.492L760.635 826.017L771.451 860.201C772.462 863.395 772.622 866.319 771.933 868.975C771.272 871.646 769.886 873.949 767.774 875.884C765.668 877.841 762.975 879.338 759.695 880.376C758.283 880.823 756.689 881.112 754.914 881.243C753.161 881.368 751.39 881.247 749.601 880.881C747.841 880.53 746.252 879.85 744.833 878.841L747.102 872.53C748.709 873.528 750.36 874.14 752.058 874.368C753.762 874.617 755.472 874.471 757.188 873.928C758.926 873.378 760.3 872.584 761.311 871.548C762.35 870.526 762.999 869.293 763.259 867.848C763.548 866.418 763.41 864.813 762.846 863.031L754.546 836.799L752.814 828.492ZM734.705 854.083L734.488 853.398C733.636 850.704 733.188 848.157 733.146 845.757C733.096 843.335 733.429 841.138 734.144 839.167C734.88 837.19 735.98 835.491 737.443 834.072C738.928 832.646 740.767 831.586 742.962 830.892C745.286 830.157 747.375 829.962 749.229 830.307C751.105 830.646 752.812 831.432 754.35 832.666C755.909 833.894 757.322 835.49 758.589 837.455C759.871 839.392 761.081 841.59 762.218 844.051L762.806 845.908C763.292 848.503 763.528 850.949 763.515 853.248C763.523 855.54 763.232 857.64 762.64 859.547C762.042 861.434 761.073 863.055 759.734 864.411C758.394 865.767 756.638 866.788 754.466 867.476C752.293 868.163 750.197 868.336 748.177 867.996C746.157 867.655 744.274 866.877 742.527 865.661C740.802 864.438 739.269 862.844 737.93 860.877C736.591 858.911 735.516 856.646 734.705 854.083ZM743.091 850.676L743.308 851.36C743.789 852.881 744.391 854.256 745.115 855.485C745.838 856.714 746.677 857.739 747.63 858.561C748.576 859.361 749.616 859.892 750.751 860.155C751.886 860.417 753.115 860.339 754.441 859.919C756.222 859.356 757.561 858.526 758.457 857.43C759.368 856.305 759.91 854.998 760.084 853.509C760.273 851.991 760.193 850.379 759.845 848.673L758.226 843.557C757.705 842.288 757.084 841.158 756.364 840.167C755.666 839.169 754.875 838.367 753.991 837.763C753.106 837.159 752.103 836.783 750.981 836.636C749.859 836.489 748.625 836.629 747.278 837.055C745.974 837.467 744.926 838.122 744.134 839.017C743.336 839.892 742.783 840.939 742.476 842.159C742.169 843.38 742.065 844.715 742.166 846.165C742.288 847.608 742.596 849.112 743.091 850.676Z" fill="#FF6C2C"/>
<defs>
<filter id="filter0_f_137_1062" x="78.8333" y="0.833328" width="958.333" height="958.333" filterUnits="userSpaceOnUse" color-interpolation-filters="sRGB">
<feFlood flood-opacity="0" result="BackgroundImageFix"/>
<feBlend mode="normal" in="SourceGraphic" in2="BackgroundImageFix" result="shape"/>
<feGaussianBlur stdDeviation="124.583" result="effect1_foregroundBlur_137_1062"/>
</filter>
<filter id="filter1_f_137_1062" x="749.75" y="907.75" width="462.5" height="462.5" filterUnits="userSpaceOnUse" color-interpolation-filters="sRGB">
<feFlood flood-opacity="0" result="BackgroundImageFix"/>
<feBlend mode="normal" in="SourceGraphic" in2="BackgroundImageFix" result="shape"/>
<feGaussianBlur stdDeviation="60.125" result="effect1_foregroundBlur_137_1062"/>
</filter>
<filter id="filter2_f_137_1062" x="667.75" y="240.75" width="462.5" height="462.5" filterUnits="userSpaceOnUse" color-interpolation-filters="sRGB">
<feFlood flood-opacity="0" result="BackgroundImageFix"/>
<feBlend mode="normal" in="SourceGraphic" in2="BackgroundImageFix" result="shape"/>
<feGaussianBlur stdDeviation="60.125" result="effect1_foregroundBlur_137_1062"/>
</filter>
<filter id="filter3_f_137_1062" x="0.749992" y="445.75" width="462.5" height="462.5" filterUnits="userSpaceOnUse" color-interpolation-filters="sRGB">
<feFlood flood-opacity="0" result="BackgroundImageFix"/>
<feBlend mode="normal" in="SourceGraphic" in2="BackgroundImageFix" result="shape"/>
<feGaussianBlur stdDeviation="60.125" result="effect1_foregroundBlur_137_1062"/>
</filter>
<filter id="filter4_f_137_1062" x="33.2917" y="864.292" width="360.417" height="360.417" filterUnits="userSpaceOnUse" color-interpolation-filters="sRGB">
<feFlood flood-opacity="0" result="BackgroundImageFix"/>
<feBlend mode="normal" in="SourceGraphic" in2="BackgroundImageFix" result="shape"/>
<feGaussianBlur stdDeviation="46.8542" result="effect1_foregroundBlur_137_1062"/>
</filter>
<linearGradient id="paint0_linear_137_1062" x1="788" y1="550.872" x2="438.227" y2="567.971" gradientUnits="userSpaceOnUse">
<stop stop-color="#FF9C2C" stop-opacity="0.15"/>
<stop offset="0.518493" stop-color="#FF6C2C" stop-opacity="0.48"/>
</linearGradient>
<linearGradient id="paint1_linear_137_1062" x1="1092" y1="1173.2" x2="923.196" y2="1181.46" gradientUnits="userSpaceOnUse">
<stop stop-color="#FF9C2C" stop-opacity="0.15"/>
<stop offset="0.518493" stop-color="#FF6C2C" stop-opacity="0.48"/>
</linearGradient>
<linearGradient id="paint2_linear_137_1062" x1="1010" y1="506.204" x2="841.196" y2="514.455" gradientUnits="userSpaceOnUse">
<stop stop-color="#FF9C2C" stop-opacity="0.15"/>
<stop offset="0.518493" stop-color="#FF6C2C" stop-opacity="0.48"/>
</linearGradient>
<linearGradient id="paint3_linear_137_1062" x1="343" y1="711.204" x2="174.196" y2="719.455" gradientUnits="userSpaceOnUse">
<stop stop-color="#FF9C2C" stop-opacity="0.15"/>
<stop offset="0.518493" stop-color="#FF6C2C" stop-opacity="0.48"/>
</linearGradient>
<linearGradient id="paint4_linear_137_1062" x1="300" y1="1071.15" x2="168.455" y2="1077.58" gradientUnits="userSpaceOnUse">
<stop stop-color="#FF9C2C" stop-opacity="0.15"/>
<stop offset="0.518493" stop-color="#FF6C2C" stop-opacity="0.48"/>
</linearGradient>
</defs>
</svg>
