<svg width="985" height="927" viewBox="0 0 985 927" fill="none" xmlns="http://www.w3.org/2000/svg">
<path d="M494.989 479L448.745 493.824L424.004 536.77L470.739 521.437L494.989 479Z" fill="#FF6C2C"/>
<path d="M586.989 450.001L540.745 464.825L516.004 507.771L562.739 492.438L586.989 450.001Z" fill="#FF6C2C"/>
<path d="M676.989 421L630.745 435.824L606.004 478.77L652.739 463.437L676.989 421Z" fill="#FF6C2C"/>
<path d="M403.989 508L357.745 522.824L333.004 565.77L379.739 550.437L403.989 508Z" fill="#FF6C2C"/>
<path d="M535.989 609.001L489.745 623.825L465.004 666.771L511.739 651.438L535.989 609.001Z" fill="#FF6C2C"/>
<path d="M627.989 580.001L581.745 594.825L557.004 637.771L603.739 622.438L627.989 580.001Z" fill="#FF6C2C"/>
<path d="M717.989 552L671.745 566.824L647.004 609.77L693.739 594.437L717.989 552Z" fill="#FF6C2C"/>
<path d="M444.989 638.001L398.745 652.825L374.004 695.771L420.739 680.438L444.989 638.001Z" fill="#FF6C2C"/>
<path d="M22.6502 395.177L64.7203 359.014L107.356 394.508L22.6502 395.177Z" stroke="#FF6C2C" stroke-width="10"/>
<line x1="69.4293" y1="167.677" x2="170.184" y2="359.72" stroke="#FF6C2C" stroke-width="10"/>
<line x1="4.72134" y1="228.659" x2="149.646" y2="389.993" stroke="#FF6C2C" stroke-width="10"/>
<path d="M98.0312 701.255L66.9828 704.57L55.1586 675.67L98.0312 701.255Z" stroke="#FF6C2C" stroke-width="8.74517"/>
<path d="M82.0419 766.634L92.3725 738.897L120.955 746.586L82.0419 766.634Z" stroke="#FF6C2C" stroke-width="8.74517"/>
<line x1="10.5171" y1="726.611" x2="120.706" y2="714.368" stroke="#FF6C2C" stroke-width="8.74517"/>
<path d="M330.728 32.0247C333.034 31.9443 335.178 32.0255 337.376 32.8019C343.65 35.0173 348.679 40.9695 353.802 45.0137L384.486 69.6397L506.817 169.834L539.159 196.107C542.329 198.716 545.674 201.15 548.753 203.863C550.976 205.82 553.108 208.039 554.362 210.757C555.8 213.872 555.834 217.38 554.598 220.567C553.616 223.101 552.102 225.256 549.874 226.813C543.49 231.275 531.624 235.233 524.213 238.321L481.668 256.287C473.486 259.62 465.422 263.246 457.271 266.658L387.537 295.858L360.94 306.893C354.881 309.441 348.892 312.228 342.736 314.53C337.181 316.608 331.199 318.324 325.518 315.573C322.003 313.87 319.115 310.762 317.986 306.987C316.181 300.947 317.398 282.856 317.445 275.337L317.499 232.522L317.619 109.472C317.61 89.1079 317.058 68.619 317.446 48.2712C317.502 45.3527 318.112 42.5101 319.496 39.9221C321.807 35.6018 326.234 33.3847 330.728 32.0247ZM338.595 113.46C341.194 120.479 349.502 132.911 353.727 140.023C365.078 158.783 376.15 177.708 386.941 196.796C388.423 199.612 390.19 204.192 393.506 205.152C394.757 205.513 396.116 205.303 397.335 204.919C400.485 203.927 417.017 196.158 419.665 194.46C421.092 193.547 422.415 192.301 422.717 190.562C422.925 189.358 422.649 188.144 422.251 187.011C420.298 181.442 417.807 175.964 415.708 170.43C408.573 151.527 401.203 132.716 393.6 113.997C391.914 109.861 387.122 96.4428 384.844 93.2938C384.381 92.6542 384.2 92.5554 383.462 92.3959C377.025 94.4661 370.729 98.0853 364.569 100.912C356.917 104.424 345.413 108.821 338.595 113.46ZM544.522 219.609L544.116 219.734C537.997 221.675 531.911 224.664 525.976 227.162L487.89 243.43L381.657 288.15L353.013 300.428C347.576 302.795 341.927 305.767 336.244 307.424C333.776 308.143 330.808 308.537 328.431 307.299C327.555 306.842 326.473 305.925 326.126 304.97C324.58 300.714 325.569 277.818 325.611 271.975L326.105 208.029L325.918 111.113C325.826 97.5241 325.821 83.9361 325.904 70.3485C325.906 63.4452 325.649 56.4757 325.894 49.5796C325.99 46.8791 326.315 44.267 327.783 41.9185C328.259 41.1589 328.946 40.4938 329.831 40.2478C332.302 39.561 334.334 40.9249 336.918 39.5711L337.284 38.9551C335.953 37.6668 333.894 37.3104 332.109 37.3394C331.876 37.3432 331.643 37.3547 331.409 37.362C328.607 38.0777 326.44 38.9336 324.878 41.5009C323.572 43.6495 323.334 45.9852 323.279 48.4445C322.959 62.7382 323.434 77.1518 323.361 91.4637L323.149 230.559L322.992 280.694C322.967 287.82 321.944 299.257 323.531 305.812C323.746 306.701 324.043 307.197 324.662 307.846C324.772 307.961 324.878 308.081 324.989 308.195C326.869 310.106 329.815 310.837 332.428 310.795C335.372 310.749 338.358 309.566 341.071 308.504C351.711 304.339 362.123 299.587 372.615 295.069L419.511 275.157C451.904 261.768 484.194 248.133 516.38 234.253C520.241 232.621 543.227 223.716 544.901 222.087C545.233 221.764 545.232 221.696 545.401 221.332C545.247 220.315 545.279 220.295 544.522 219.609ZM422.474 248.165C429.069 246.825 434.856 244.277 438.61 238.404C441.554 233.797 442.198 227.967 440.908 222.706C440.834 222.399 440.752 222.094 440.662 221.791C440.573 221.488 440.475 221.187 440.371 220.89C440.266 220.591 440.154 220.296 440.034 220.004C439.914 219.711 439.787 219.422 439.653 219.136C439.518 218.85 439.377 218.568 439.229 218.289C439.08 218.01 438.924 217.735 438.762 217.465C438.599 217.194 438.43 216.927 438.254 216.665C438.078 216.403 437.895 216.145 437.706 215.891C437.517 215.638 437.322 215.39 437.121 215.147C436.919 214.903 436.711 214.665 436.498 214.433C436.284 214.2 436.064 213.973 435.839 213.751C435.614 213.53 435.384 213.314 435.148 213.104C434.912 212.894 434.67 212.69 434.424 212.492C434.178 212.294 433.926 212.103 433.67 211.918C433.414 211.733 433.154 211.554 432.888 211.383C432.623 211.21 432.354 211.045 432.081 210.887C428.951 209.034 425.057 207.921 421.405 208.004C415.172 208.62 409.615 210.365 405.548 215.521C405.334 215.798 405.126 216.08 404.925 216.368C404.724 216.655 404.531 216.948 404.344 217.245C404.158 217.543 403.98 217.844 403.809 218.15C403.637 218.456 403.474 218.767 403.318 219.081C403.162 219.395 403.015 219.713 402.875 220.035C402.735 220.356 402.603 220.681 402.479 221.01C402.356 221.338 402.24 221.669 402.133 222.003C402.026 222.337 401.927 222.673 401.836 223.012C401.746 223.351 401.664 223.693 401.591 224.035C401.518 224.378 401.453 224.723 401.397 225.069C401.34 225.415 401.293 225.762 401.254 226.111C401.215 226.46 401.185 226.809 401.163 227.159C401.142 227.509 401.129 227.86 401.125 228.211C401.121 228.561 401.125 228.912 401.139 229.262C401.152 229.613 401.174 229.963 401.205 230.312C401.236 230.662 401.276 231.01 401.324 231.357C401.374 231.681 401.432 232.002 401.498 232.323C401.564 232.644 401.638 232.962 401.721 233.279C401.803 233.595 401.893 233.91 401.991 234.222C402.09 234.534 402.196 234.844 402.309 235.151C402.423 235.457 402.544 235.761 402.674 236.061C402.802 236.362 402.939 236.66 403.083 236.953C403.227 237.247 403.378 237.537 403.537 237.823C403.696 238.109 403.862 238.391 404.034 238.669C404.207 238.947 404.387 239.22 404.574 239.489C404.76 239.758 404.953 240.022 405.153 240.281C405.353 240.54 405.56 240.794 405.772 241.043C405.985 241.291 406.203 241.534 406.429 241.772C406.654 242.01 406.884 242.241 407.121 242.467C407.357 242.693 407.599 242.913 407.847 243.127C408.095 243.34 408.348 243.548 408.606 243.749C408.864 243.95 409.127 244.144 409.395 244.332C413.41 247.184 417.609 248.214 422.474 248.165Z" fill="#FF6C2C"/>
<path d="M381.805 99C384.684 102.443 414.668 179.601 417.198 187.801C410.557 192.063 401.476 195.479 394.226 199C392.371 196.153 390.74 193.168 389.073 190.208C383.354 180.854 378.121 171.218 372.541 161.782L345 115.977C356.951 109.785 369.694 104.943 381.805 99ZM392.97 187.815C393.757 187.227 394.545 186.797 394.817 185.798C393.135 180.192 387.57 171.935 384.468 166.679C377.802 155.381 371.038 144.156 364.507 132.78C362.021 128.453 359.278 124.192 357.04 119.738C360.94 117.771 374.121 112.649 376.028 110.309C376.054 109.4 375.944 108.867 375.273 108.186C375.027 107.936 374.923 107.897 374.65 107.742C369.133 110.458 357.634 114.81 353.564 118.43C353.099 120.103 354.303 122.009 355.127 123.47C357.948 128.467 361.115 133.298 364.025 138.251L381.873 169.04C384.49 173.523 390.06 184.576 392.97 187.815Z" fill="#FF6C2C"/>
<path d="M421.821 213C424.937 213.143 427.979 213.858 430.563 215.676C433.782 217.94 435.853 221.543 436.462 225.408C436.503 225.66 436.537 225.913 436.564 226.166C436.593 226.42 436.614 226.674 436.628 226.929C436.643 227.184 436.652 227.439 436.653 227.694C436.655 227.949 436.65 228.204 436.639 228.459C436.628 228.714 436.61 228.969 436.586 229.223C436.561 229.477 436.53 229.73 436.493 229.983C436.455 230.235 436.412 230.486 436.362 230.737C436.312 230.987 436.255 231.235 436.192 231.483C436.129 231.73 436.06 231.976 435.985 232.22C435.91 232.464 435.828 232.705 435.74 232.945C435.653 233.184 435.559 233.422 435.459 233.657C435.359 233.891 435.253 234.123 435.141 234.353C435.03 234.583 434.912 234.809 434.789 235.032C434.665 235.255 434.536 235.476 434.402 235.692C434.267 235.91 434.127 236.123 433.982 236.332C433.836 236.542 433.685 236.748 433.53 236.95C430.473 240.939 426.751 242.263 421.993 242.991C418.046 243.092 414.837 242.386 411.633 239.935C411.441 239.791 411.252 239.642 411.068 239.488C410.884 239.333 410.703 239.175 410.527 239.012C410.351 238.849 410.179 238.681 410.011 238.509C409.844 238.337 409.68 238.161 409.522 237.98C409.363 237.8 409.209 237.616 409.06 237.427C408.911 237.239 408.766 237.047 408.627 236.852C408.487 236.656 408.353 236.457 408.224 236.255C408.095 236.052 407.971 235.846 407.853 235.637C407.734 235.429 407.621 235.217 407.514 235.002C407.406 234.787 407.303 234.57 407.207 234.35C407.11 234.13 407.019 233.908 406.934 233.684C406.849 233.459 406.769 233.233 406.696 233.004C406.622 232.775 406.554 232.545 406.493 232.313C406.431 232.081 406.375 231.847 406.326 231.612C406.276 231.377 406.232 231.141 406.194 230.904C406.157 230.666 406.125 230.428 406.099 230.189C406.07 229.931 406.047 229.672 406.03 229.414C406.014 229.154 406.005 228.895 406.001 228.635C405.998 228.375 406.001 228.115 406.011 227.856C406.021 227.596 406.038 227.337 406.061 227.078C406.084 226.82 406.114 226.561 406.149 226.304C406.186 226.047 406.228 225.791 406.277 225.536C406.326 225.281 406.382 225.027 406.444 224.774C406.506 224.522 406.574 224.272 406.649 224.023C406.723 223.774 406.804 223.527 406.891 223.282C406.979 223.038 407.072 222.795 407.171 222.555C407.27 222.315 407.376 222.078 407.487 221.843C407.599 221.609 407.716 221.377 407.839 221.148C407.962 220.919 408.091 220.694 408.226 220.472C408.36 220.249 408.5 220.03 408.646 219.815C408.791 219.6 408.942 219.389 409.099 219.181C409.255 218.974 409.417 218.77 409.583 218.571C412.795 214.769 417.071 213.493 421.821 213ZM416.141 238.307L416.649 237.382C414.561 233.362 410.765 231.676 412.737 225.583C414.561 219.95 421.374 219.381 421.58 216.734C421.268 216.401 420.979 216.036 420.604 215.774C416.298 217.38 412.674 219.772 410.777 224.159C409.574 226.942 409.33 230.282 410.582 233.095C411.669 235.539 413.683 237.328 416.141 238.307Z" fill="#FF6C2C"/>
<rect x="187.433" y="478.611" width="601.461" height="356.661" rx="25" transform="rotate(-17.585 187.433 478.611)" stroke="#FF6C2C" stroke-width="10"/>
<path d="M125.66 615.075C137.796 611.221 164.202 609.404 172.737 632.962C183.406 662.41 158.12 675.849 146.335 680.017" stroke="#FF6C2C" stroke-width="10"/>
<path d="M147.334 679.962C159.47 676.108 185.876 674.291 194.411 697.849C205.08 727.297 179.794 740.736 168.009 744.904" stroke="#FF6C2C" stroke-width="10"/>
<path d="M168.009 744.904C180.146 741.05 206.552 739.233 215.087 762.791C225.756 792.239 200.47 805.679 188.685 809.846" stroke="#FF6C2C" stroke-width="10"/>
<path d="M188.685 809.846C200.821 805.993 227.228 804.175 235.763 827.734C246.431 857.181 221.146 870.621 209.361 874.789" stroke="#FF6C2C" stroke-width="10"/>
<path d="M104.371 548.141C116.508 544.288 142.914 542.47 151.449 566.028C162.118 595.476 136.832 608.916 125.047 613.084" stroke="#FF6C2C" stroke-width="10"/>
<path d="M83.0854 481.253C95.2217 477.399 121.628 475.582 130.163 499.14C140.832 528.588 115.546 542.027 103.761 546.195" stroke="#FF6C2C" stroke-width="10"/>
<path d="M885.009 373.435C872.937 377.487 850.547 391.604 857.561 415.659C866.328 445.728 894.672 441.654 906.646 438.063" stroke="#FF6C2C" stroke-width="10"/>
<path d="M905.807 438.608C893.735 442.659 871.346 456.777 878.359 480.832C887.126 510.901 915.47 506.827 927.444 503.236" stroke="#FF6C2C" stroke-width="10"/>
<path d="M927.444 503.236C915.372 507.287 892.982 521.405 899.996 545.46C908.763 575.529 937.107 571.455 949.081 567.864" stroke="#FF6C2C" stroke-width="10"/>
<path d="M949.081 567.865C937.009 571.916 914.619 586.034 921.633 610.089C930.4 640.158 958.744 636.084 970.718 632.493" stroke="#FF6C2C" stroke-width="10"/>
<path d="M862.691 306.837C850.62 310.889 828.23 325.006 835.244 349.061C844.011 379.13 872.355 375.056 884.328 371.466" stroke="#FF6C2C" stroke-width="10"/>
<path d="M840.398 240.278C828.326 244.329 805.937 258.447 812.95 282.502C821.717 312.571 850.062 308.497 862.035 304.906" stroke="#FF6C2C" stroke-width="10"/>
<line x1="208.641" y1="874.856" x2="969.641" y2="632.856" stroke="#FF6C2C" stroke-width="10"/>
<line x1="84.6457" y1="480.867" x2="832.646" y2="243.855" stroke="#FF6C2C" stroke-width="10"/>
<line x1="775.814" y1="760.913" x2="940.894" y2="923.104" stroke="#FF6C2C" stroke-width="10"/>
<path d="M775.506 794.984L803.589 883.385L727.572 830.237L775.506 794.984Z" stroke="#FF6C2C" stroke-width="10"/>
<path d="M928.996 764.103L884.29 800.54L848.096 755.638L928.996 764.103Z" stroke="#FF6C2C" stroke-width="10"/>
<path d="M774.839 188.253L798.794 148.846L838.07 173.014L774.839 188.253Z" stroke="#FF6C2C" stroke-width="7.9961"/>
<line x1="728.497" y1="6.38789" x2="682.919" y2="232.43" stroke="#FF6C2C" stroke-width="7.9961"/>
<line x1="842.406" y1="1.96156" x2="721.664" y2="216.401" stroke="#FF6C2C" stroke-width="7.9961"/>
<path d="M413.615 605.889L412.862 576.659L418.337 574.926L419.636 584.697L420.076 613.166L415.351 614.661L413.615 605.889ZM400.87 580.453L415.167 605.47L418.349 613.712L412.907 615.434L392.495 583.103L400.87 580.453ZM433.879 599.119L431.176 570.864L439.518 568.224L441.486 606.391L436.043 608.113L433.879 599.119ZM419.184 574.658L435.235 598.761L439.009 607.175L434.284 608.67L418.202 585.15L413.677 576.401L419.184 574.658ZM472.809 588.234L467.664 571.973C467.286 570.778 466.753 569.812 466.065 569.073C465.377 568.335 464.534 567.861 463.536 567.651C462.537 567.441 461.386 567.542 460.083 567.955C458.931 568.319 457.983 568.834 457.238 569.5C456.514 570.16 456.038 570.92 455.808 571.781C455.572 572.621 455.598 573.497 455.887 574.409L447.252 577.141C446.791 575.686 446.702 574.196 446.985 572.673C447.261 571.128 447.878 569.642 448.837 568.215C449.81 566.76 451.106 565.454 452.723 564.297C454.363 563.133 456.312 562.193 458.571 561.478C461.243 560.633 463.767 560.336 466.141 560.589C468.53 560.813 470.607 561.637 472.373 563.062C474.16 564.481 475.487 566.558 476.353 569.296L481.22 584.677C481.776 586.437 482.363 587.912 482.979 589.103C483.61 590.266 484.297 591.231 485.042 592L485.218 592.554L476.452 595.327C475.757 594.567 475.085 593.537 474.434 592.237C473.777 590.916 473.235 589.581 472.809 588.234ZM469.591 573.873L471.275 578.968L465.833 580.69C464.486 581.117 463.347 581.632 462.415 582.238C461.477 582.822 460.764 583.477 460.277 584.205C459.784 584.911 459.487 585.674 459.388 586.494C459.283 587.292 459.37 588.137 459.652 589.027C459.927 589.896 460.37 590.617 460.981 591.188C461.614 591.753 462.376 592.121 463.267 592.293C464.173 592.437 465.147 592.344 466.19 592.014C467.711 591.533 468.94 590.809 469.877 589.843C470.807 588.856 471.446 587.817 471.795 586.727C472.143 585.637 472.211 584.683 472 583.866L475.653 586.797C475.63 587.784 475.473 588.873 475.181 590.065C474.889 591.257 474.402 592.438 473.721 593.61C473.041 594.781 472.116 595.863 470.948 596.854C469.78 597.845 468.305 598.622 466.523 599.186C464.242 599.908 462.056 600.097 459.964 599.756C457.872 599.414 456.054 598.615 454.509 597.359C452.964 596.103 451.873 594.465 451.233 592.444C450.642 590.576 450.467 588.815 450.709 587.161C450.95 585.507 451.601 583.975 452.66 582.564C453.712 581.132 455.17 579.846 457.032 578.707C458.909 577.54 461.162 576.54 463.791 575.708L469.591 573.873ZM491.33 559.753L500.208 587.81L491.605 590.533L480.448 555.273L488.595 552.695L491.33 559.753ZM499.7 548.93L502.106 556.988C501.601 557.053 501.037 557.159 500.415 557.308C499.815 557.45 499.254 557.604 498.733 557.769C497.407 558.188 496.303 558.741 495.421 559.426C494.532 560.09 493.857 560.865 493.396 561.752C492.958 562.631 492.719 563.615 492.681 564.703C492.636 565.769 492.784 566.917 493.126 568.147L491.196 568.507C490.488 566.269 490.06 564.122 489.911 562.066C489.762 560.01 489.895 558.127 490.311 556.419C490.726 554.71 491.462 553.258 492.518 552.064C493.589 550.84 494.982 549.957 496.698 549.414C497.176 549.263 497.701 549.145 498.271 549.06C498.857 548.946 499.333 548.903 499.7 548.93ZM515.319 552.521L524.094 580.252L515.491 582.974L504.335 547.715L512.416 545.158L515.319 552.521ZM516.745 561.785L514.203 562.589C513.414 560.019 513.026 557.584 513.04 555.285C513.053 552.987 513.431 550.895 514.173 549.011C514.937 547.121 516.039 545.505 517.48 544.165C518.92 542.825 520.683 541.825 522.768 541.165C524.463 540.629 526.07 540.383 527.59 540.428C529.11 540.473 530.524 540.862 531.831 541.596C533.16 542.322 534.354 543.45 535.411 544.98C536.484 546.481 537.408 548.459 538.185 550.914L545.341 573.529L536.673 576.272L529.496 553.591C528.988 551.984 528.347 550.788 527.573 550.006C526.821 549.216 525.938 548.766 524.924 548.657C523.931 548.541 522.794 548.686 521.512 549.091C520.187 549.511 519.11 550.15 518.283 551.009C517.47 551.84 516.875 552.829 516.497 553.976C516.141 555.117 515.982 556.35 516.019 557.677C516.056 559.003 516.298 560.373 516.745 561.785ZM550.902 532.98L562.058 568.24L553.423 570.972L542.266 535.713L550.902 532.98ZM538.762 526.676C538.356 525.394 538.454 524.192 539.054 523.07C539.677 521.941 540.738 521.139 542.237 520.665C543.736 520.191 545.054 520.24 546.191 520.812C547.35 521.377 548.132 522.301 548.538 523.583C548.936 524.843 548.824 526.037 548.202 527.167C547.601 528.289 546.551 529.087 545.052 529.561C543.553 530.036 542.224 529.99 541.065 529.425C539.928 528.852 539.16 527.936 538.762 526.676ZM569.936 535.239L578.711 562.971L570.108 565.693L558.951 530.433L567.032 527.876L569.936 535.239ZM571.361 544.503L568.82 545.307C568.03 542.737 567.642 540.303 567.656 538.004C567.669 535.705 568.047 533.614 568.79 531.73C569.554 529.839 570.656 528.224 572.096 526.884C573.536 525.544 575.299 524.544 577.385 523.884C579.079 523.348 580.686 523.102 582.206 523.147C583.726 523.192 585.14 523.581 586.447 524.314C587.777 525.041 588.97 526.169 590.028 527.698C591.1 529.199 592.025 531.177 592.802 533.632L599.957 556.248L591.289 558.991L584.113 536.31C583.604 534.702 582.963 533.507 582.189 532.724C581.438 531.934 580.554 531.485 579.54 531.375C578.547 531.259 577.41 531.404 576.128 531.81C574.803 532.229 573.727 532.868 572.899 533.728C572.087 534.558 571.491 535.547 571.113 536.695C570.757 537.835 570.598 539.069 570.635 540.395C570.673 541.722 570.915 543.091 571.361 544.503ZM618.814 511.492L626.635 509.017L637.451 543.201C638.462 546.395 638.622 549.319 637.933 551.975C637.272 554.646 635.886 556.949 633.774 558.884C631.668 560.841 628.975 562.338 625.695 563.376C624.283 563.823 622.689 564.112 620.914 564.243C619.161 564.368 617.39 564.247 615.601 563.881C613.841 563.53 612.252 562.85 610.833 561.841L613.102 555.53C614.709 556.528 616.36 557.14 618.058 557.368C619.762 557.617 621.472 557.471 623.188 556.928C624.926 556.378 626.3 555.584 627.311 554.548C628.35 553.526 628.999 552.293 629.259 550.848C629.548 549.418 629.41 547.813 628.846 546.031L620.546 519.799L618.814 511.492ZM600.705 537.083L600.488 536.398C599.636 533.704 599.188 531.157 599.146 528.757C599.096 526.335 599.429 524.138 600.144 522.167C600.88 520.19 601.98 518.491 603.443 517.072C604.928 515.646 606.767 514.586 608.962 513.892C611.286 513.157 613.375 512.962 615.229 513.307C617.105 513.646 618.812 514.432 620.35 515.666C621.909 516.894 623.322 518.49 624.589 520.455C625.871 522.392 627.081 524.59 628.218 527.051L628.806 528.908C629.292 531.503 629.528 533.949 629.515 536.248C629.523 538.54 629.232 540.64 628.64 542.547C628.042 544.434 627.073 546.055 625.734 547.411C624.394 548.767 622.638 549.788 620.466 550.476C618.293 551.163 616.197 551.336 614.177 550.996C612.157 550.655 610.274 549.877 608.527 548.661C606.802 547.438 605.269 545.844 603.93 543.877C602.591 541.911 601.516 539.646 600.705 537.083ZM609.091 533.676L609.308 534.36C609.789 535.881 610.391 537.256 611.115 538.485C611.838 539.714 612.677 540.739 613.63 541.561C614.576 542.361 615.616 542.892 616.751 543.155C617.886 543.417 619.115 543.339 620.441 542.919C622.222 542.356 623.561 541.526 624.457 540.43C625.368 539.305 625.91 537.998 626.084 536.509C626.273 534.991 626.193 533.379 625.845 531.673L624.226 526.557C623.705 525.288 623.084 524.158 622.364 523.167C621.666 522.169 620.875 521.367 619.991 520.763C619.106 520.159 618.103 519.783 616.981 519.636C615.859 519.489 614.625 519.629 613.278 520.055C611.974 520.467 610.926 521.122 610.134 522.017C609.336 522.892 608.783 523.939 608.476 525.159C608.169 526.38 608.065 527.715 608.166 529.165C608.288 530.608 608.596 532.112 609.091 533.676Z" fill="#FF6C2C"/>
</svg>
